<?xml version="1.0" encoding="utf-8"?>
<!-- Generator: Adobe Illustrator 21.0.0, SVG Export Plug-In . SVG Version: 6.00 Build 0)  -->
<svg version="1.1" id="Layer_1" xmlns="http://www.w3.org/2000/svg" xmlns:xlink="http://www.w3.org/1999/xlink" x="0px" y="0px"
	 viewBox="0 0 694 176" style="enable-background:new 0 0 694 176;" xml:space="preserve">
<g id="Layer_1_1_">
	<g>
		<rect x="210.3" y="4.7" width="1.9" height="165.4"/>
		<path d="M95.6,13.5c0,0-0.8-0.1-1.3,0.1c-0.5,0.1-1-0.9-0.7-1.2C93.6,12.4,94.4,11.9,95.6,13.5z M74.3,37.1
			c-0.3-0.6-0.2-1.3,0.2-1.8c0.5-0.5,1.1-0.9,1.8-1c0.3-0.1,0.6-0.1,0.9,0c-0.1-0.2-0.1-0.5-0.1-0.8c0.1-0.7,0.5-1.4,1-1.9
			c0.3-0.3,0.7-0.5,1.1-0.7c0-0.2,0-0.3,0-0.5c0,0,0,0,0-0.1c-0.4-0.2-0.7-0.6-0.8-1.1c-0.1-0.7,0.2-1.3,0.8-1.6
			c0.6-0.4,1.3-0.5,2.1-0.4c0.3,0.1,0.7,0.2,1,0.3c0.3-0.2,0.7-0.2,1-0.2c0.7,0.1,1.4,0.4,1.9,1c0.5,0.5,0.8,1.2,0.9,1.9
			c0.3-0.7,0.6-1.4,1.1-2.1c0.6-1,1.2-2.1,2.1-3.3c0.8-1.1,1.6-2.2,2.3-3.1c0.3-0.4,0.6-0.8,0.9-1.2c0.1-0.2,0.3-0.4,0.4-0.5
			C92,20,91.4,20.1,91,20.1c-0.2,0-0.3,0-0.4,0.1c-0.1,0-0.2,0-0.4,0c-0.8,0-1.6-0.5-2-1.3c-0.4,0.1-0.7,0.2-1.1,0.2
			c-0.9,0.2-1.7,0.4-2.5,0.4c-0.4,0-0.7,0-1.1-0.1c-1.2-0.4-2-1.2-2.2-2.3c-0.2-0.7,0-1.4,0-1.5c0.1-0.5,0.5-0.9,0.9-1
			c0-0.7,0.2-1.1,0.2-1.2c0.2-0.6,0.8-1.1,1.5-1.1c0,0,0,0,0,0c0.7,0,1.3,0.4,1.5,1.1c0.2,0.4,0.4,0.8,0.6,1.1c-0.1-0.8,0-1.7,0.6-3
			c0.2-0.4,0.6-0.7,1-0.9c0.4-0.1,0.9-0.1,1.3,0.2c0,0,0.7,0.4,1.9,0.7c0.3-0.4,0.8-0.9,1.3-1.2c0.3-0.2,0.6-0.3,0.9-0.3
			c0.1,0,2.2,0,4.3,0.2l3.2-0.1c0.6,0,1.1,0.3,1.4,0.7c0.3,0.4,0.6,0.7,0.8,0.7c0.6,0.1,1,0.5,1.2,1.1c0.2,0.5,0,1.1-0.4,1.6
			c-0.3,0.4-0.7,0.6-1.1,0.9c-0.1,0.5-0.2,1.1-0.4,1.7c-0.1,0.4-0.2,0.7-0.4,1.1c0.2-0.2,0.4-0.3,0.7-0.4c0.7-0.3,1.4-0.4,2.4-0.4
			c0.2,0,0.4,0,0.6,0c0-0.1,0.1-0.2,0.1-0.3c0.1-0.2,0.2-0.4,0.4-0.6c0,0,0,0,0,0c0.1-0.2,0.3-0.4,0.4-0.6c0.1-0.1,0.2-0.2,0.2-0.3
			l0-0.1c0.1-0.1,0.2-0.2,0.3-0.3c0.2-0.2,0.3-0.4,0.5-0.5c0.2-0.2,0.4-0.4,0.6-0.5c0.4-0.3,0.8-0.6,1.3-0.8
			c0.2-0.1,0.4-0.2,0.7-0.3c0.1-0.1,0.3-0.1,0.4-0.2l0.1-0.1c0,0,0,0,0,0l0,0c0,0,0.1,0,0.1,0c0.2-0.1,0.4-0.2,0.6-0.2
			c0.1-0.2,0.2-0.4,0.3-0.5c0.2-0.5,0.5-0.9,0.8-1.3c-0.1-0.1-0.3-0.2-0.4-0.2c-0.5-0.4-0.8-1-0.7-1.6c0.1-0.6,0.5-1.1,1.1-1.3
			c2.5-0.7,3.4-1.1,5.7-2.1l0.8-0.3c0.6-0.3,1.4-0.1,1.8,0.4c0.5,0.5,0.5,1.3,0.2,1.9c-1.3,2.3-1.9,3.9-2,5.3c0,0.5-0.3,0.9-0.7,1.2
			c0.1,0.2,0.2,0.3,0.3,0.5c0.1,0.1,0.1,0.3,0.2,0.4l0,0c0,0,0,0.1,0,0.1l0,0.1c0,0,0,0,0,0.1c0,0,0,0.1,0,0.1l0,0.1c0,0,0,0,0,0
			l0,0c0,0,0,0,0,0l0,0.2c0,0,0,0,0,0.1c0,0.1,0,0.3,0.1,0.4c0,0,0,0,0,0c0,0.2,0,0.5,0,0.7c0,0.5-0.1,1-0.3,1.4
			c-0.4,0.9-1,1.7-1.9,2.2c-0.1,0.1-0.3,0.2-0.4,0.2c0.7,0.3,1.3,0.6,1.9,0.8c0.5,0.2,0.8,0.4,1.6,0.5v0c0.3,0,0.7,0.1,1,0.3
			c0.6,0.5,0.6,1.5,0.1,2.2c-0.1,0.2-0.4,0.5-0.7,1l0,0c-0.5,0.8-2.6,2.4-3,2.3c0,0,0.8,0.9,0,1.7l0,0c-1,1.2-2.1,2.5-3.3,3.9
			c0,0,0,0,0,0c0.2,0.2,0.4,0.5,0.6,0.8c0.4,0.7,0.7,1.3,1,1.9c0.1,0.2,0.1,0.3,0.1,0.4c0,0,0,0.1,0,0.1c0,0,0,0,0,0l0.1,0.2
			c0,0,0,0.1,0,0.1v0c0.1,0.2,0.3,0.3,0.4,0.5c0.6,0.8,1,1.8,1.1,2.8c0,0.2,0,0.4,0,0.6l0,0.1c0,0.2,0,0.3,0,0.4l0,0c0,0,0,0,0,0
			l0,0.3c0,0.2,0,0.4-0.1,0.5l0,0.2c0,0,0,0,0,0.1l0,0.1c0,0.1,0,0.1,0,0.2l0,0.1c-0.1,0.2-0.1,0.4-0.2,0.5c0,0,0,0.1,0,0.1
			l-0.2,0.4c-0.1,0.2-0.2,0.4-0.3,0.5l0,0.1c0,0,0,0,0,0l0,0.1c-0.1,0.1-0.2,0.3-0.3,0.5l-0.3,0.4c0,0-0.1,0.1-0.1,0.1l-0.3,0.3
			c-0.1,0.2-0.3,0.3-0.4,0.4l-0.1,0.1c-0.1,0.1-0.2,0.2-0.4,0.3c-0.6,0.5-1.2,0.9-1.7,1.1c0,0,0,0,0,0c-0.3,0.2-0.6,0.3-0.8,0.4
			c-0.2-0.3-0.3-0.7-0.5-1c-0.1-0.2-0.3-0.5-0.6-0.6c0.3-0.1,0.6-0.3,1-0.5c0.5-0.3,1-0.6,1.4-1c0.1-0.1,0.2-0.2,0.3-0.3
			c0.1-0.1,0.2-0.2,0.3-0.3l0.3-0.4l0.3-0.4c0.1-0.1,0.2-0.3,0.3-0.4c0.1-0.1,0.2-0.3,0.2-0.4l0.2-0.4c0.1-0.2,0.1-0.3,0.1-0.5
			l0-0.1l0-0.1l0,0l0-0.1l0,0l0-0.2c0-0.1,0-0.2,0.1-0.4l0-0.3c0-0.1,0-0.2,0-0.3c0-0.2,0-0.4,0-0.5c-0.1-0.7-0.4-1.5-0.8-2
			c-0.2-0.2-0.4-0.5-0.6-0.7c0-0.1,0-0.1,0-0.2l0-0.2l-0.1-0.2c0-0.1-0.1-0.3-0.1-0.4c-0.2-0.6-0.5-1.1-0.8-1.6
			c-0.3-0.4-0.6-0.8-0.9-1.1c-0.6,0.7-1.3,1.3-1.9,2c0,0.1,0.1,0.1,0.1,0.2c0,0,0,0.1,0.1,0.1c0,0,0,0,0,0c0.6,1.1,1.2,2.7,1,3.7
			c0,0,0,0,0,0c0,0,0,0.1,0,0.1c0,0,0,0.1,0,0.1c0,0,0,0,0,0c0,0,0,0,0,0.1c0,0-0.1,0.1-0.1,0.1c-0.2,0.1-0.4,0.2-0.6,0.1
			c-0.2,0-0.3-0.2-0.4-0.3c0-0.1-0.1-0.1-0.1-0.2c0,0,0,0,0,0c0,0,0,0,0,0c0,0,0,0,0,0c0,0,0,0,0,0c0,0,0,0,0,0l0,0c0,0,0,0,0,0
			l0-0.1l0,0c0,0,0,0,0,0c0.1-0.3,0.3-0.5,0.6-0.5c-0.1-0.8-0.5-1.8-1-2.6c-1,1-2,2-2.5,2.5l0,0l0,0l0,0.2l0,0l0,0.1l0,0.2l0,0.2
			l0,0.2c0,0.1,0,0.2,0,0.3c0,0.1,0,0.2,0,0.3c0,0.1,0.1,0.2,0.1,0.3c0.3,0.8,0.8,1.5,1.4,1.9c0.2,0.1,0.3,0.2,0.5,0.3
			c0.1,0,0.2,0.1,0.3,0.1l0.2,0l0.1,0l0,0l0.1,0l0,0l0.1,0l0,0l0.1,0c0.1,0,0.1,0,0.2,0l0.1,0l0.1,0c0.2,0,0.4,0,0.6,0
			c0,0,0.1,0,0.1,0c0,0,0,0,0,0c-1.9,0.8-5.4,0.1-5.4-3.7c-0.2,0-0.4,0.1-0.6,0.1c-0.7,0-1.6-0.1-2.4-0.3c-2.1-0.4-3.2-0.2-3.2-0.2
			s1.6-0.8,3.3-0.6c1.3,0.2,2.5,0.5,3.3,0.1c0.8-0.6,1.5-1.3,2.3-2c1.3-1.3,3-3.1,4.3-4.4c0.3-0.3,0.6-0.6,0.8-0.9l-3.9-1.3
			c3,1,4.8,0.1,5.7-0.7c0.2-0.2,0.4-0.5,0.6-0.7c0,0,0,0,0,0l0,0c0,0,0-0.1,0.1-0.1l-7.8-2.7c6.7,2.3,9.7,0.2,10.7-0.9
			c0.4-0.5,0.8-1,1.1-1.6c-0.3,0.2-1.2,0-1.9-0.2c-0.4-0.1-11.1-5.4-15-3.7c-0.3,0.1-0.6,0.3-0.8,0.6c-0.1,0.1-0.1,0.2-0.1,0.3
			c-0.4,1.1-0.9,2.9-1.6,4.9c-1,3.6-2,6.8-3.2,8.9c-1.1,2-3.2,2.1-3.2,2.1s1.8-0.6,2.5-2.3c0,0-3.6-0.9-2.6-3.5
			c0.1-0.2,0.2-0.5,0.3-0.7c0-0.1,0-0.1,0.1-0.2h0c0.1-0.1,0.1-0.2,0.2-0.3c0.5-1,1-2.1,1.6-3.1c1.1-2.1,2.3-4.2,3.2-6.2
			c0.5-1,0.9-2.1,1.2-3.1c0.2-0.5,0.3-1,0.4-1.5c0,0,0-0.1,0-0.1c-0.1,0-0.3,0-0.4,0c-1.3-0.1-2.1-1.1-2.1-1.1s1.2,0.7,2.7,0.3
			c0.6-0.2,1-0.5,1.3-0.8c-0.9-0.2-1.5-1-1.7-1.4l-3.3,0.2c-2.1-0.4-4.2-0.3-4.2-0.3c-0.8,0.5-1.4,1.7-1.4,1.7
			c-2.2-0.3-3.5-1.1-3.5-1.1c-0.5,1.1-0.7,2.2-0.2,2.8c2.6,1,7.6,2.7,8.7,2.6c2.3-0.2,3.4-2.4,3.4-2.4s-0.6,2.6-3.3,3.1
			c-0.1,0-0.2,0-0.3,0c-0.2,0-0.4,0-0.6-0.1c-1,1.4-2.2,2.9-3.3,4.4c-0.8,1-1.5,2-2.2,3c-0.7,1-1.4,2.1-2,3.2
			c-0.6,1.1-1.2,2.2-1.5,3.5c0,0.2-0.1,0.3-0.1,0.5c0,0.2-0.1,0.3-0.1,0.5c-0.1,0.3-0.1,0.6-0.2,1c0,0.3-0.1,0.6-0.1,0.8l-2.7-1.2
			l0.5-2.2c0.2-0.1,0.3-0.3,0.3-0.5c0-0.1,0-0.3-0.1-0.4c0.1-0.5,0-1-0.4-1.4c-0.3-0.3-0.6-0.4-0.9-0.5c0.3,0.4,0.5,0.9,0.4,1.4
			c-0.3,0.1-0.5,0.3-0.5,0.6c0,0.2,0,0.3,0.1,0.4l-0.2,0.7l-0.3-1.5c0.1-0.1,0.1-0.2,0.1-0.3c0-0.3-0.2-0.5-0.4-0.6
			c-0.2-0.4-0.7-0.8-1.2-0.9c-0.4-0.1-0.7,0-1,0.2c0.6,0.1,1,0.5,1.2,1c-0.2,0.1-0.3,0.4-0.4,0.6c0,0.4,0.3,0.8,0.7,0.8l0.2,1.3
			l-0.2-0.1c0-0.3-0.2-0.5-0.5-0.5c-0.2,0-0.4,0.1-0.5,0.2c-0.5-0.1-0.9,0.1-1.3,0.4c-0.3,0.3-0.4,0.6-0.5,0.9
			c0.5-0.4,1.1-0.5,1.6-0.3c0,0,0,0.1,0,0.1c0,0.4,0.3,0.8,0.8,0.9c0.2,0,0.3,0,0.5-0.1l0.3,0.2l-0.2,2.1c-0.3,0.1-0.5,0.3-0.5,0.6
			c0,0.4,0.2,0.7,0.6,0.7c0,0.5-0.3,0.9-0.7,1.2c0.3,0,0.7,0,1-0.2c0.4-0.2,0.6-0.5,0.7-0.9c0.2-0.1,0.3-0.3,0.3-0.5
			c0-0.2-0.1-0.5-0.3-0.6l0.2-1.4l3.1,1.7c0,0,0,0,0,0c2.2-1.9,3.5-2.2,4.4-2.2c0.2,0,0.4,0,0.6,0c2.3,0.3,2.4,3.1,2.4,3.1
			s-0.9-2.4-2.4-2.4c-0.2,0-0.3,0-0.5,0c-0.8,0.1-2,0.4-4.2,2.3c0,0-1.2,1.2-1.9,2l0,0l-3.8-0.3l-0.2-2.3c0.1-0.1,0.2-0.3,0.1-0.5
			c0-0.1-0.1-0.2-0.2-0.3c-0.1-0.5-0.4-0.9-0.8-1.2c-0.3-0.2-0.7-0.2-1-0.2c0.5,0.3,0.7,0.7,0.8,1.2c-0.2,0.2-0.3,0.5-0.3,0.7
			c0,0.1,0.1,0.3,0.2,0.4l0.1,0.7l-0.7-1.3c0-0.1,0-0.2,0-0.3c-0.1-0.3-0.3-0.4-0.6-0.4c-0.4-0.3-0.9-0.5-1.4-0.4
			c-0.4,0.1-0.7,0.3-0.9,0.5c0.6-0.1,1.1,0.1,1.4,0.5c-0.1,0.2-0.2,0.4-0.1,0.7c0.1,0.4,0.5,0.6,0.9,0.6l0.6,1.1l-0.2,0
			c-0.1-0.2-0.4-0.4-0.6-0.3c-0.2,0.1-0.3,0.2-0.4,0.4c-0.5,0.1-0.9,0.4-1.1,0.8c-0.2,0.3-0.2,0.7-0.2,1c0.3-0.5,0.9-0.8,1.4-0.8
			c0,0,0,0.1,0,0.1c0.1,0.4,0.6,0.7,1,0.6c0.2,0,0.3-0.1,0.4-0.3l0.4,0.1l0.5,2.1c-0.2,0.2-0.3,0.5-0.3,0.7c0.1,0.4,0.4,0.6,0.8,0.5
			c0.1,0.5,0,1-0.3,1.4c0.3-0.1,0.7-0.2,0.9-0.5c0.3-0.3,0.4-0.7,0.4-1.1c0.2-0.1,0.2-0.4,0.2-0.6c-0.1-0.2-0.3-0.4-0.5-0.4
			l-0.3-1.3c0,0,4,0.8,4.3,0.8c0,0.5,0.1,0.9,0.4,1.4c0.3,0.5,0.7,0.8,1.2,1c-0.1-0.1-0.1-0.3-0.2-0.4c-0.3-1.3,0.3-2.6,1.4-3.1
			c0.7,0.9,1.6,1.9,2.7,2.7c-0.4,0.4-0.8,0.8-1.2,1.2c-0.5-0.4-0.9-0.8-1.3-1.2c0,0.1,0,0.2,0,0.2c0,0,0,0.1,0.1,0.2
			c0.3,0.6,0.2,1.3-0.3,1.7c0,0,0,0,0,0l-0.3,0c-0.4,0-0.8,0.2-1.1,0.4c-0.1,0-0.2,0-0.3-0.1c-0.9-0.3-1.6-0.9-2-1.7
			c-0.2-0.3-0.3-0.5-0.4-0.8L83,43.7c0,0.3-0.1,0.6-0.2,0.9c-0.1,0.6-0.3,1.1-0.7,1.6c-0.5,0.5-1.1,0.9-1.8,1.1
			c-0.7,0.1-1.3-0.2-1.7-0.7c-0.3-0.4-0.3-0.9-0.1-1.4c-0.2-0.3-0.4-0.6-0.5-1c-0.1-0.5-0.1-1,0.1-1.5l0,0c-0.3,0-0.6-0.1-0.9-0.3
			c-0.4,0.3-0.8,0.4-1.3,0.4c-0.7-0.1-1.2-0.6-1.3-1.3c-0.1-0.7,0-1.4,0.3-2.1c0.2-0.4,0.5-0.7,0.8-1c-0.1-0.1-0.1-0.3-0.2-0.4
			c0,0,0-0.1,0-0.1C75,37.8,74.5,37.6,74.3,37.1z M99.5,22.6c-0.4,0.8-0.8,1.5-1.2,2.3c-0.3,0.5-0.5,1-0.8,1.5c-0.5,1-1,2-1.5,3
			c-0.5,1.2-0.1,2.2,0.5,2.3c0,0,0,0,0,0c0.9-2.1,1.8-5.1,2.5-7.4c0,0,0,0,0,0C99.2,23.7,99.4,23.1,99.5,22.6z M107,17.3
			c0.9,0.1,1.8,0.4,2.7,0.6c0,0,0-0.1,0.1-0.1c0-0.1,0.1-0.1,0.1-0.2c0.1-0.1,0.2-0.2,0.3-0.3c0.1-0.1,0.2-0.2,0.3-0.3
			c0.2-0.2,0.5-0.4,0.7-0.5c0.1-0.1,0.2-0.1,0.4-0.2c0,0.6,0.1,1.2,0.5,1.7c0.2,0.3,0.4,0.5,0.7,0.7c0.3,0.2,0.6,0.3,1,0.4
			c0.3,0.1,0.7,0,1,0c0.3-0.1,0.6-0.2,0.9-0.4c0.6-0.3,1-0.9,1.2-1.5c0.1-0.3,0.2-0.6,0.2-0.9c0-0.2,0-0.3,0-0.5c0-0.1,0-0.2,0-0.3
			l0-0.2l0,0l0-0.1l0,0l0,0l0-0.1c0-0.1-0.1-0.2-0.1-0.3c-0.1-0.2-0.2-0.3-0.3-0.5c-0.2-0.3-0.5-0.5-0.8-0.7
			c-0.6-0.3-1.2-0.4-1.8-0.4c0,0,0,0,0,0c0-0.1,0.1-0.2,0.1-0.3c0.3-0.7,0.7-1.4,1.1-2.1c0.2-0.3,0.5-0.6,0.8-0.9
			c0.1,0.9,0.6,1.7,1.1,2.2c0.1-1.8,0.8-3.7,2.2-6.1c-2.8,1.3-3.8,1.8-6.7,2.6c0.6,0.4,1.5,0.7,2.5,0.6c-0.3,0.2-0.6,0.5-0.8,0.8
			c-0.6,0.7-1.1,1.4-1.5,2.2c-0.2,0.4-0.3,0.7-0.5,1.1c-0.4,0.1-0.8,0.3-1.2,0.4c-0.1,0-0.1,0-0.1,0.1l-0.2,0.1
			c-0.1,0-0.2,0.1-0.3,0.1c-0.2,0.1-0.4,0.2-0.6,0.3c-0.4,0.2-0.7,0.4-1.1,0.7c-0.2,0.1-0.3,0.3-0.5,0.4c-0.2,0.1-0.3,0.3-0.5,0.5
			c-0.1,0.1-0.1,0.2-0.2,0.2c-0.1,0.1-0.1,0.2-0.2,0.3c-0.1,0.2-0.3,0.4-0.4,0.6C107.1,17.1,107,17.2,107,17.3z M95.6,17.8
			c-1.4-0.3-3.4-0.9-5.2-1.6c-1.3-0.3-2.2-0.2-3.9,0.1c-1.9,0.4-2.8-2.3-2.8-2.3s-0.9,2.5,1.7,3c0,0-2,0.6-2.8-0.9
			c0,0-0.4,1.4,1.1,1.9c1.2,0.4,3.9-0.8,6.5-0.8l-1.3,0.4c0,0,0.2,1.3,1,1.1C90.5,18.7,93.2,18.4,95.6,17.8z M88.6,13.3
			c0,0,0.2,0.6,1.4,0.3c0,0-0.4-0.3-0.6-0.6C89.3,12.7,88.7,13,88.6,13.3z M113.4,16.3C113.4,16.4,113.4,16.4,113.4,16.3L113.4,16.3
			L113.4,16.3L113.4,16.3l0,0.2c0,0,0,0,0,0l0,0v0v0l0,0l0,0c0,0,0,0,0,0c0,0.1,0.1,0.2,0.2,0.3c0.1,0.1,0.3,0.2,0.4,0.2
			c0.1,0,0.2,0,0.3,0c0.1,0,0.2-0.1,0.3-0.1c0.2-0.1,0.3-0.3,0.3-0.5c0-0.1,0-0.2,0-0.3c0,0,0-0.1,0-0.1c0,0,0,0,0,0c0,0,0,0,0,0
			l0,0l0-0.1c0,0-0.1-0.1-0.2-0.2c-0.2-0.1-0.4-0.1-0.7-0.1c-0.2,0-0.4,0-0.6,0.1c0,0.2,0,0.5,0,0.7
			C113.4,16.3,113.4,16.3,113.4,16.3z M82.9,95.8L82.9,95.8l-0.1,0.1c-0.3,0.5-0.3,1.1,0.1,1.6c0.3,0.5,0.9,0.9,1.5,0.9l0.1,0l0-0.1
			c0.3-0.5,0.3-1.1,0-1.6C84.1,96.2,83.5,95.8,82.9,95.8z M108.6,86.3L108.6,86.3l0.1,0.1c0.1,0,0.1,0,0.2,0l0,0
			c0.5,0,1.1-0.3,1.5-0.7c0.4-0.5,0.6-1.1,0.4-1.6l0-0.1l-0.1,0c-0.6-0.1-1.2,0.2-1.6,0.7C108.5,85.2,108.4,85.8,108.6,86.3z
			 M81,98.3L81,98.3L81,98.4c0.1,0.5,0.6,0.9,1.3,1.1c0.2,0.1,0.4,0.1,0.7,0.1c0.4,0,0.8-0.1,1.1-0.3l0.1-0.1l0-0.1
			c-0.1-0.5-0.6-0.9-1.3-1.1C82.1,97.9,81.5,98,81,98.3z M84.8,96.7L84.8,96.7c0.6-0.3,0.9-0.8,0.9-1.5c0-0.6-0.3-1.2-0.8-1.5
			l-0.1,0l-0.1,0C84.4,94,84,94.5,84,95.2C84,95.8,84.3,96.3,84.8,96.7L84.8,96.7z M90.7,85.9c0.3,0.6,0.8,1,1.4,1l0.1,0l0-0.1
			c0.3-0.4,0.4-1.1,0.1-1.6c-0.3-0.6-0.8-1-1.4-1l-0.1,0l0,0.1C90.4,84.8,90.4,85.4,90.7,85.9z M87,94.6L87,94.6l0.1-0.1
			c0.2-0.5,0.2-1.1-0.2-1.6c-0.4-0.5-1-0.8-1.6-0.8l-0.1,0l0,0.1c-0.2,0.5-0.2,1.1,0.2,1.6C85.8,94.3,86.4,94.6,87,94.6
			C86.9,94.6,87,94.6,87,94.6z M115.5,96.3L115.5,96.3c-0.7,0-1.3,0.3-1.6,0.7l-0.1,0.1l0.1,0.1c0.3,0.4,0.9,0.7,1.6,0.7h0l0,0
			c0.7,0,1.3-0.3,1.6-0.7l0.1-0.1l-0.1-0.1C116.8,96.6,116.2,96.3,115.5,96.3z M108.6,87L108.6,87l-0.1,0c-0.5,0.2-0.9,0.7-1,1.3
			c-0.1,0.6,0.1,1.2,0.6,1.5l0.1,0l0.1,0c0.5-0.2,0.9-0.7,1-1.3C109.3,87.9,109.1,87.4,108.6,87z M90.2,86.5L90.2,86.5l-0.1,0.1
			c-0.3,0.4-0.3,1.1,0,1.6c0.3,0.6,0.9,0.9,1.4,1l0.1,0l0-0.1c0.3-0.4,0.3-1.1,0-1.6C91.3,86.9,90.8,86.5,90.2,86.5z M114.3,93.1
			L114.3,93.1c-0.7,0-1.2,0.4-1.6,0.9c-0.3,0.5-0.4,1.2-0.1,1.6l0,0.1l0.1,0c0.6,0,1.2-0.4,1.5-0.9
			C114.5,94.3,114.6,93.6,114.3,93.1L114.3,93.1z M115.9,94.4c-0.3,0-0.6,0.1-0.9,0.2c-0.6,0.3-1.1,0.7-1.1,1.2l0,0.1l0.1,0
			c0.3,0.2,0.6,0.2,0.9,0.2l0,0c0.3,0,0.6-0.1,0.9-0.2c0.6-0.3,1.1-0.7,1.1-1.2l0-0.1l-0.1,0C116.6,94.5,116.3,94.4,115.9,94.4z
			 M114,91.5L114,91.5c-0.2-0.1-0.4-0.1-0.5-0.1c-0.4,0-0.9,0.2-1.3,0.5c-0.5,0.4-0.8,1-0.7,1.5l0,0.1l0.1,0c0.1,0,0.3,0.1,0.4,0.1
			l0,0c0.4,0,0.9-0.2,1.3-0.5C113.8,92.7,114.1,92.1,114,91.5L114,91.5z M110,88.6c-0.6,0.3-1,0.8-1.1,1.3l0,0.1l0.1,0
			c0.2,0.1,0.5,0.2,0.8,0.2c0.3,0,0.6-0.1,1-0.2c0.6-0.3,1-0.8,1.1-1.3l0-0.1l-0.1,0C111.3,88.3,110.6,88.3,110,88.6z M95.3,88.6
			L95.3,88.6c-0.7,0-1.2,0.4-1.5,1s-0.3,1.2,0,1.6l0,0.1l0.1,0c0.6,0,1.1-0.4,1.4-1C95.6,89.8,95.7,89.2,95.3,88.6L95.3,88.6z
			 M87.7,96L87.7,96c0.2,0,0.5,0,0.7-0.1c0.7-0.2,1.1-0.6,1.3-1.1l0-0.1l-0.1-0.1c-0.4-0.3-1.1-0.4-1.8-0.2
			c-0.6,0.2-1.1,0.6-1.3,1.1l0,0.1l0.1,0.1C86.9,95.9,87.3,96,87.7,96z M92.2,94L92.2,94l0.1-0.1c0.3-0.4,0.3-1.1-0.1-1.6
			c-0.3-0.5-0.9-0.9-1.5-0.9l-0.1,0l0,0.1c-0.3,0.5-0.3,1.1,0.1,1.6C91.1,93.6,91.6,93.9,92.2,94z M93.1,91.9L93.1,91.9l0.1-0.1
			c0.2-0.5,0-1.1-0.4-1.6c-0.4-0.4-0.9-0.6-1.4-0.6c-0.1,0-0.1,0-0.2,0l-0.1,0l0,0.1c-0.2,0.5,0,1.1,0.4,1.6
			c0.4,0.4,0.9,0.6,1.4,0.6C93,91.9,93,91.9,93.1,91.9z M89.8,85.1L89.8,85.1l0.1,0c0.5-0.3,0.7-0.9,0.7-1.5
			c-0.1-0.6-0.4-1.1-0.9-1.4l-0.1,0l-0.1,0c-0.5,0.3-0.7,0.9-0.7,1.5C88.9,84.4,89.3,84.9,89.8,85.1z M93.7,87.2
			c-0.1,0.6,0.2,1.2,0.6,1.5l0.1,0l0.1,0c0.5-0.2,0.9-0.7,1-1.4c0.1-0.6-0.2-1.2-0.6-1.5l-0.1,0l-0.1,0C94.1,86,93.8,86.6,93.7,87.2
			z M92,88.5c0.1,0.6,0.4,1.1,0.9,1.4l0.1,0l0.1,0c0.5-0.3,0.7-0.9,0.7-1.5c-0.1-0.6-0.4-1.2-0.9-1.4l-0.1,0l-0.1,0
			C92.2,87.3,91.9,87.9,92,88.5z M88,98.6c-0.4-0.3-0.8-0.4-1.2-0.4c-0.2,0-0.4,0-0.5,0.1l-0.1,0l0,0.1c-0.1,0.5,0.2,1.1,0.8,1.5
			c0.4,0.3,0.8,0.4,1.2,0.4l0,0c0.2,0,0.4,0,0.5-0.1l0.1,0l0-0.1C88.9,99.5,88.6,99,88,98.6z M93.2,86.6L93.2,86.6l0.1,0
			c0.5-0.2,0.9-0.8,0.9-1.4c0.1-0.6-0.2-1.2-0.7-1.5l-0.1,0l-0.1,0c-0.5,0.2-0.9,0.8-0.9,1.4C92.4,85.8,92.7,86.3,93.2,86.6z
			 M88.9,96.8L88.9,96.8c0.2,0.1,0.3,0.1,0.5,0.1l0,0c0.5,0,0.9-0.2,1.3-0.5c0.5-0.4,0.8-1,0.7-1.5l0-0.1l-0.1,0
			c-0.1,0-0.3-0.1-0.4-0.1c-0.5,0-0.9,0.2-1.3,0.5C89,95.6,88.8,96.2,88.9,96.8L88.9,96.8z M88.9,94.1c0.1,0,0.2,0,0.3,0
			c0.6,0,1.1-0.2,1.4-0.5l0.1-0.1l0-0.1c-0.2-0.5-0.8-0.8-1.5-0.9c-0.7-0.1-1.3,0.1-1.7,0.5l-0.1,0.1l0,0.1
			C87.7,93.7,88.2,94.1,88.9,94.1z M89.4,88.3L89.4,88.3c-0.4,0.5-0.5,1.1-0.3,1.7c0.2,0.6,0.7,1,1.3,1.1l0.1,0l0.1-0.1
			c0.4-0.4,0.5-1,0.3-1.6C90.5,88.8,90,88.4,89.4,88.3L89.4,88.3z M88.1,86.3c0.1,0.6,0.5,1.1,1,1.3l0.1,0l0.1,0
			c0.5-0.3,0.7-0.9,0.6-1.5c-0.1-0.6-0.5-1.1-1-1.3l-0.1,0l-0.1,0C88.2,85.1,88,85.7,88.1,86.3z M112.3,99.2L112.3,99.2l0,0.1
			c0.3,0.2,0.7,0.3,1.1,0.3c0.2,0,0.4,0,0.7-0.1c0.7-0.2,1.1-0.6,1.3-1.1l0-0.1l-0.1-0.1c-0.3-0.2-0.7-0.3-1.1-0.3
			c-0.2,0-0.4,0-0.7,0.1C112.9,98.2,112.4,98.7,112.3,99.2z M87.3,96.1L87.3,96.1l-0.1,0.1c-0.3,0.5-0.2,1.1,0.1,1.6
			c0.3,0.5,0.9,0.9,1.5,0.9l0.1,0l0-0.1c0.3-0.5,0.2-1.1-0.1-1.6C88.4,96.4,87.8,96.1,87.3,96.1z M87.6,92.6L87.6,92.6
			c0.2-0.6,0-1.2-0.5-1.6c-0.4-0.4-0.9-0.6-1.4-0.6c-0.1,0-0.2,0-0.3,0l-0.1,0l0,0.1c-0.2,0.5,0,1.1,0.5,1.6
			c0.4,0.4,0.9,0.6,1.4,0.6C87.4,92.6,87.5,92.6,87.6,92.6L87.6,92.6z M87.6,90.4L87.6,90.4l-0.1,0.1c-0.1,0.5,0.2,1.1,0.7,1.5
			c0.4,0.3,0.8,0.5,1.3,0.5l0,0c0.2,0,0.3,0,0.4-0.1l0.1,0l0-0.1c0.1-0.5-0.2-1.1-0.7-1.5c-0.4-0.3-0.8-0.5-1.3-0.5
			C87.9,90.3,87.7,90.3,87.6,90.4z M113,89.3L113,89.3c-0.7,0-1.2,0.4-1.6,0.9c-0.3,0.5-0.4,1.2-0.1,1.6l0,0.1l0.1,0
			c0.6,0,1.1-0.4,1.5-0.9C113.3,90.5,113.3,89.9,113,89.3L113,89.3z M107,88.3L107,88.3c-0.6,0.1-1.1,0.6-1.3,1.2
			c-0.2,0.6-0.1,1.2,0.3,1.6l0.1,0.1l0.1,0c0.6-0.1,1-0.6,1.3-1.1C107.5,89.3,107.4,88.7,107,88.3L107,88.3z M108.9,90.4L108.9,90.4
			c-0.2-0.1-0.4-0.1-0.5-0.1c-0.4,0-0.9,0.2-1.3,0.5c-0.5,0.4-0.8,1-0.7,1.5l0,0.1l0.1,0c0.1,0,0.3,0.1,0.4,0.1
			c0.4,0,0.9-0.2,1.3-0.5C108.7,91.6,109,91,108.9,90.4L108.9,90.4z M107.2,94.1c0.1,0,0.2,0,0.3,0c0.7-0.1,1.3-0.4,1.5-0.9l0-0.1
			l-0.1-0.1c-0.4-0.4-1-0.6-1.7-0.5c-0.7,0.1-1.3,0.4-1.5,0.9l0,0.1l0.1,0.1C106.1,93.9,106.6,94.1,107.2,94.1z M106.5,85.2
			L106.5,85.2l0.1,0c0.5-0.2,0.9-0.8,0.9-1.4c0.1-0.6-0.2-1.2-0.7-1.5l-0.1,0l-0.1,0c-0.5,0.2-0.9,0.8-0.9,1.4
			C105.8,84.3,106.1,84.9,106.5,85.2z M104.2,87L104.2,87c0.6-0.1,1.2-0.5,1.5-1c0.3-0.6,0.3-1.2-0.1-1.6l0-0.1l-0.1,0
			c-0.6,0.1-1.1,0.5-1.4,1C103.8,85.9,103.8,86.5,104.2,87L104.2,87z M102.1,88.5L102.1,88.5l0.1,0c0.5-0.3,0.7-0.9,0.6-1.5
			c-0.1-0.6-0.4-1.1-1-1.4l-0.1,0l-0.1,0c-0.5,0.3-0.7,0.9-0.6,1.5C101.2,87.8,101.6,88.3,102.1,88.5z M102.3,96.1L102.3,96.1
			l0.1,0.1c0.1,0,0.2,0,0.2,0c0.1,0,0.2,0,0.3,0l0,0.1c0.1,0.5,0.6,1,1.2,1.2c0.3,0.1,0.5,0.1,0.8,0.1l0,0c0.4,0,0.7-0.1,1-0.3
			l0.1-0.1l0-0.1c-0.1-0.5-0.6-1-1.2-1.2c-0.3-0.1-0.7-0.1-1-0.1c0.1-0.1,0.2-0.1,0.3-0.2c0.5-0.5,0.7-1.1,0.5-1.6l0-0.1l-0.1,0
			c-0.1,0-0.2,0-0.3,0c-0.5,0-1,0.2-1.4,0.6c-0.1,0.1-0.1,0.1-0.2,0.2c0.1-0.2,0.2-0.4,0.2-0.6c0.1-0.6-0.1-1.2-0.5-1.6l-0.1,0
			l-0.1,0c-0.4,0.1-0.8,0.5-1,0.9c0-0.2,0-0.5-0.1-0.8c-0.1-0.2-0.2-0.4-0.4-0.6c0.2,0,0.4,0.1,0.5,0.1c0.3,0,0.5-0.1,0.7-0.1l0.1,0
			v-0.1c0-0.5-0.4-1-1-1.4c-0.3-0.2-0.7-0.3-1.1-0.3c-0.3,0-0.5,0.1-0.7,0.1l-0.1,0l0,0.1c0,0.4,0.2,0.7,0.5,1l0,0
			c-0.4,0.4-0.5,1-0.3,1.6c0.2,0.6,0.7,1,1.2,1.2l0.1,0l0.1-0.1c0.1-0.1,0.2-0.2,0.2-0.3c-0.1,0.6,0.1,1.1,0.5,1.4l0.1,0l0.1,0
			c0.3-0.1,0.5-0.3,0.7-0.5C102.2,95.3,102.2,95.8,102.3,96.1z M106.2,86.5L106.2,86.5c-0.7,0.1-1.2,0.4-1.5,1
			c-0.3,0.6-0.3,1.2,0,1.6l0,0.1l0.1,0c0.6,0,1.1-0.4,1.4-1C106.6,87.6,106.6,87,106.2,86.5L106.2,86.5z M115.7,91.7
			c-0.7,0-1.3,0.3-1.6,0.7l-0.1,0.1l0.1,0.1c0.3,0.4,0.9,0.7,1.6,0.7h0l0,0c0.7,0,1.3-0.3,1.6-0.7l0.1-0.1l-0.1-0.1
			C117,92,116.4,91.7,115.7,91.7L115.7,91.7z M96.2,88.4L96.2,88.4c0.1,0,0.2,0,0.2,0c0.5,0,1.1-0.3,1.5-0.7
			c0.4-0.5,0.5-1.1,0.3-1.6l0-0.1l-0.1,0c-0.6,0-1.2,0.2-1.6,0.7C96.1,87.2,96,87.9,96.2,88.4L96.2,88.4z M110.5,92
			c0.5-0.5,0.7-1.1,0.5-1.6l0-0.1l-0.1,0c-0.1,0-0.2,0-0.3,0c-0.5,0-1,0.2-1.4,0.6c-0.5,0.5-0.7,1.1-0.5,1.6l0,0.1l0.1,0
			c0.1,0,0.2,0,0.3,0C109.6,92.6,110.1,92.4,110.5,92z M107.5,84.7c-0.5,0.2-0.9,0.7-1,1.3c-0.1,0.6,0.1,1.2,0.6,1.5l0.1,0l0.1,0
			c0.5-0.2,0.9-0.7,1-1.3c0.1-0.6-0.1-1.2-0.6-1.5L107.5,84.7L107.5,84.7z M107.4,96.8L107.4,96.8l0.1-0.1c0.1-0.5-0.1-1.1-0.7-1.5
			c-0.4-0.3-0.9-0.5-1.3-0.5c-0.1,0-0.3,0-0.4,0.1l-0.1,0l0,0.1c-0.1,0.5,0.1,1.1,0.7,1.5c0.4,0.3,0.9,0.5,1.3,0.5
			C107.1,96.9,107.2,96.9,107.4,96.8z M110.2,98.3L110.2,98.3c-0.2-0.1-0.4-0.1-0.6-0.1c-0.4,0-0.9,0.1-1.2,0.4
			c-0.5,0.4-0.8,0.9-0.8,1.5l0,0.1l0.1,0c0.2,0.1,0.3,0.1,0.5,0.1c0.4,0,0.9-0.1,1.2-0.4C109.9,99.5,110.2,98.9,110.2,98.3
			L110.2,98.3z M111.5,96.6L111.5,96.6l0.1,0c0.5-0.3,0.8-0.9,0.8-1.5c0-0.6-0.4-1.2-0.9-1.4l-0.1,0l-0.1,0
			c-0.5,0.3-0.8,0.9-0.8,1.5C110.6,95.8,111,96.4,111.5,96.6z M105.7,91.4L105.7,91.4l-0.1-0.1c-0.6,0-1.1,0.4-1.5,0.9
			c-0.3,0.5-0.4,1.2-0.1,1.6l0,0.1l0.1,0c0.6,0,1.1-0.4,1.5-0.9C106,92.5,106,91.9,105.7,91.4z M110.9,93.9c0.4-0.5,0.5-1.1,0.2-1.6
			l0-0.1l-0.1,0c-0.6,0-1.2,0.3-1.6,0.8c-0.4,0.5-0.5,1.1-0.2,1.6l0,0.1l0.1,0c0,0,0,0,0.1,0C110,94.6,110.6,94.3,110.9,93.9z
			 M108.7,96L108.7,96c0.4,0,0.8-0.1,1.1-0.3l0.1-0.1l0-0.1c-0.1-0.5-0.6-0.9-1.3-1.1c-0.6-0.2-1.3-0.1-1.8,0.2l-0.1,0.1l0,0.1
			c0.1,0.5,0.6,0.9,1.3,1.1C108.2,95.9,108.4,96,108.7,96z M109.1,97.7c0.4-0.5,0.4-1.2,0.1-1.6l0-0.1l-0.1,0
			c-0.6,0-1.2,0.4-1.5,0.9c-0.3,0.5-0.4,1.2-0.1,1.6l0,0.1l0.1,0C108.2,98.6,108.8,98.3,109.1,97.7z M113.5,95.8L113.5,95.8
			c-0.7,0-1.2,0.4-1.5,0.9c-0.3,0.6-0.3,1.2,0,1.6l0,0.1l0.1,0c0.6,0,1.1-0.4,1.5-0.9C113.8,96.9,113.9,96.3,113.5,95.8L113.5,95.8z
			 M108.3,82.8c-0.4,0.5-0.5,1.1-0.3,1.6l0,0.1l0.1,0c0,0,0.1,0,0.1,0c0.6,0,1.1-0.3,1.5-0.8c0.4-0.5,0.5-1.1,0.3-1.6l0-0.1l-0.1,0
			C109.3,82,108.6,82.3,108.3,82.8z M103.1,91.8L103.1,91.8l0.1,0.1c0.1,0,0.1,0,0.2,0c0.5,0,1.1-0.2,1.4-0.6
			c0.4-0.5,0.6-1.1,0.4-1.6l0-0.1l-0.1,0c-0.1,0-0.1,0-0.2,0c-0.5,0-1.1,0.2-1.4,0.6C103.1,90.7,102.9,91.3,103.1,91.8z M103.3,89.9
			L103.3,89.9l0.1,0c0.5-0.2,0.9-0.8,0.9-1.4c0.1-0.6-0.2-1.2-0.7-1.5l-0.1,0l-0.1,0c-0.5,0.2-0.9,0.8-0.9,1.4
			C102.6,89,102.8,89.6,103.3,89.9z M99.3,87.7c0.4,0.3,0.8,0.4,1.3,0.4c0.2,0,0.3,0,0.5-0.1l0.1,0l0-0.1c0.1-0.5-0.2-1.1-0.7-1.5
			c-0.4-0.3-0.8-0.4-1.3-0.4c-0.2,0-0.3,0-0.5,0.1l-0.1,0l0,0.1C98.5,86.8,98.8,87.3,99.3,87.7z M102.8,91.2L102.8,91.2l0.1-0.1
			c0.3-0.5,0.2-1.1-0.2-1.6c-0.4-0.5-0.9-0.8-1.5-0.8l-0.1,0l0,0.1c-0.3,0.5-0.2,1.1,0.2,1.6C101.6,90.9,102.2,91.2,102.8,91.2z
			 M88.8,103.8L88.8,103.8l-0.1,0.1c0.1,0.5,0.5,1,1.1,1.3c0.3,0.1,0.6,0.2,0.9,0.2l0,0c0.3,0,0.6-0.1,0.9-0.2l0.1,0l0-0.1
			c-0.1-0.5-0.5-1-1.1-1.3C90,103.5,89.3,103.5,88.8,103.8z M83.7,103.9L83.7,103.9l-0.1,0c-0.5,0.2-1,0.7-1.1,1.3
			c-0.1,0.6,0.1,1.2,0.5,1.6l0.1,0l0.1,0c0.5-0.2,1-0.7,1.1-1.3C84.4,104.9,84.2,104.3,83.7,103.9z M85.1,105.3L85.1,105.3H85
			c-0.5,0.3-0.8,0.8-0.8,1.4c0,0.6,0.3,1.2,0.8,1.4l0.1,0l0.1,0c0.5-0.3,0.8-0.8,0.8-1.4C85.9,106.1,85.6,105.6,85.1,105.3z
			 M81.9,104.4L81.9,104.4c-0.6,0-1.2,0.4-1.6,0.9c-0.3,0.5-0.4,1.2-0.1,1.6l0,0.1l0.1,0c0.6,0,1.1-0.4,1.5-0.9
			C82.2,105.5,82.3,104.9,81.9,104.4L81.9,104.4z M86.3,104L86.3,104l-0.1,0c-0.4,0.4-0.5,1-0.4,1.6c0.2,0.6,0.6,1.1,1.2,1.2l0.1,0
			l0.1-0.1c0.4-0.4,0.5-1,0.4-1.6C87.3,104.6,86.9,104.1,86.3,104z M91.3,98.1L91.3,98.1l-0.1,0.1c-0.3,0.5-0.3,1.1,0.1,1.6
			c0.3,0.5,0.9,0.9,1.5,0.9l0.1,0l0-0.1c0.3-0.4,0.3-1.1-0.1-1.6C92.4,98.5,91.8,98.2,91.3,98.1z M81.2,103.3L81.2,103.3l-0.1-0.1
			c-0.2-0.1-0.3-0.1-0.5-0.1c-0.4,0-0.9,0.1-1.2,0.4c-0.5,0.4-0.8,0.9-0.8,1.5l0,0.1l0.1,0c0.2,0.1,0.3,0.1,0.5,0.1l0,0
			c0.4,0,0.9-0.1,1.2-0.4C81,104.4,81.3,103.8,81.2,103.3z M88,104.5L88,104.5l-0.1,0.1c-0.3,0.5-0.2,1.1,0.2,1.6
			c0.4,0.5,0.9,0.8,1.5,0.8h0.1l0-0.1c0.3-0.5,0.2-1.1-0.2-1.6C89.2,104.8,88.6,104.5,88,104.5z M86.7,88.4L86.7,88.4l0.1-0.1
			c0.3-0.5,0.2-1.1-0.1-1.6c-0.3-0.5-0.9-0.9-1.5-0.9l-0.1,0l0,0.1c-0.3,0.5-0.2,1.1,0.1,1.6C85.6,88.1,86.2,88.4,86.7,88.4z
			 M109.6,86.8c-0.3,0.5-0.4,1.2-0.1,1.6l0,0.1l0.1,0c0.6,0,1.2-0.4,1.5-0.9c0.3-0.5,0.4-1.2,0.1-1.6l0-0.1l-0.1,0
			C110.5,85.9,110,86.2,109.6,86.8z M87.5,86.4c0.1,0,0.1,0,0.2,0l0.1,0l0-0.1c0.2-0.5,0-1.1-0.4-1.6c-0.4-0.5-1.1-0.7-1.6-0.7
			l-0.1,0l0,0.1c-0.2,0.5,0,1.1,0.4,1.6C86.4,86.2,87,86.4,87.5,86.4z M113.2,91L113.2,91l0.1,0.1c0.2,0.1,0.5,0.2,0.8,0.2l0,0
			c0.3,0,0.7-0.1,1-0.2c0.6-0.3,1-0.8,1-1.3l0-0.1l-0.1,0c-0.2-0.1-0.5-0.2-0.8-0.2c-0.3,0-0.7,0.1-1,0.2
			C113.6,89.9,113.3,90.4,113.2,91z M93.9,99c0.4,0,0.8-0.1,1.1-0.3l0.1-0.1l0-0.1c-0.1-0.5-0.6-0.9-1.3-1.1
			c-0.2-0.1-0.4-0.1-0.6-0.1c-0.4,0-0.8,0.1-1.1,0.3l-0.1,0.1l0,0.1c0.1,0.5,0.6,0.9,1.3,1.1C93.4,98.9,93.6,99,93.9,99L93.9,99z
			 M80.6,93.3L80.6,93.3c0.7,0,1.3-0.3,1.6-0.7l0.1-0.1l-0.1-0.1c-0.3-0.4-0.9-0.7-1.6-0.7h0c-0.7,0-1.3,0.3-1.6,0.7L79,92.5
			l0.1,0.1C79.4,93,80,93.3,80.6,93.3z M81.3,91c0.3,0.2,0.7,0.2,1,0.2c0.3,0,0.6-0.1,0.8-0.2l0.1,0l0-0.1c0-0.5-0.4-1-1-1.3
			c-0.6-0.3-1.3-0.3-1.8-0.1l-0.1,0l0,0.1C80.3,90.2,80.7,90.7,81.3,91z M83.3,88.3c0.2,0.1,0.4,0.1,0.6,0.1c0.4,0,0.8-0.1,1.1-0.3
			l0.1-0.1l0-0.1c-0.1-0.5-0.6-0.9-1.3-1.1c-0.2-0.1-0.4-0.1-0.6-0.1c-0.4,0-0.8,0.1-1.1,0.3L82,87.1l0,0.1
			C82.2,87.7,82.7,88.1,83.3,88.3z M111.2,88L111.2,88c0.4,0.3,0.8,0.4,1.2,0.4c0.2,0,0.4,0,0.6-0.1c0.7-0.2,1.2-0.6,1.3-1.1l0-0.1
			l-0.1-0.1c-0.3-0.2-0.7-0.3-1.1-0.3c-0.2,0-0.4,0-0.6,0.1C111.9,87,111.4,87.4,111.2,88L111.2,88z M111.4,105.3L111.4,105.3h-0.1
			c-0.5,0.3-0.8,0.8-0.8,1.4c0,0.6,0.3,1.2,0.8,1.4l0.1,0l0.1,0c0.5-0.3,0.8-0.8,0.8-1.4C112.2,106.1,111.9,105.6,111.4,105.3z
			 M110.2,104L110.2,104l-0.1,0c-0.6,0.1-1,0.6-1.2,1.2c-0.2,0.6,0,1.2,0.4,1.6l0.1,0.1l0.1,0c0.6-0.1,1-0.6,1.2-1.2
			C110.7,105,110.6,104.4,110.2,104z M107.6,103.9L107.6,103.9l-0.1-0.1c-0.5-0.3-1.2-0.3-1.8,0c-0.6,0.3-1,0.8-1.1,1.3l0,0.1l0.1,0
			c0.2,0.1,0.5,0.2,0.9,0.2c0.3,0,0.6-0.1,0.9-0.2C107.1,104.9,107.5,104.5,107.6,103.9z M108.4,104.5L108.4,104.5
			c-0.7,0-1.2,0.3-1.6,0.8c-0.4,0.5-0.4,1.1-0.2,1.6l0,0.1l0.1,0c0.6,0,1.1-0.3,1.5-0.8C108.7,105.6,108.7,105,108.4,104.5
			L108.4,104.5z M112.7,103.9L112.7,103.9l-0.1,0c-0.4,0.3-0.6,1-0.5,1.6c0.1,0.6,0.6,1.1,1.1,1.3l0.1,0l0.1,0
			c0.4-0.3,0.6-1,0.5-1.6C113.7,104.6,113.3,104.1,112.7,103.9z M117,103.5c-0.4-0.3-0.8-0.4-1.2-0.4c-0.2,0-0.4,0-0.5,0.1l-0.1,0
			l0,0.1c-0.1,0.5,0.2,1.1,0.8,1.5c0.4,0.3,0.8,0.4,1.2,0.4c0.2,0,0.4,0,0.5-0.1l0.1,0l0-0.1C117.8,104.4,117.5,103.9,117,103.5z
			 M114.5,104.4L114.5,104.4l-0.1,0.1c-0.3,0.4-0.3,1.1,0.1,1.6c0.3,0.5,0.9,0.9,1.5,0.9l0.1,0l0-0.1c0.3-0.4,0.3-1.1-0.1-1.6
			C115.6,104.8,115.1,104.4,114.5,104.4z M105.2,98.1L105.2,98.1c-0.7,0-1.2,0.4-1.6,0.9c-0.3,0.5-0.4,1.2-0.1,1.6l0,0.1l0.1,0
			c0.6,0,1.1-0.4,1.5-0.9C105.5,99.3,105.5,98.6,105.2,98.1L105.2,98.1z M97.4,90L97.4,90l-0.1,0.1c-0.3,0.4-0.4,1.1-0.1,1.6
			c0.3,0.6,0.8,1,1.4,1l0.1,0l0-0.1c0.3-0.4,0.4-1.1,0.1-1.6C98.5,90.5,98,90.1,97.4,90z M100.3,97.3L100.3,97.3l0.1,0
			c0.4-0.4,0.6-1,0.4-1.6c-0.2-0.6-0.6-1.1-1.1-1.2l-0.1,0l-0.1,0c-0.4,0.4-0.6,1-0.4,1.6C99.3,96.7,99.8,97.1,100.3,97.3z
			 M96.6,96.5L96.6,96.5h-0.1c-0.5,0.3-0.8,0.8-0.8,1.4s0.3,1.2,0.8,1.4l0.1,0l0.1,0c0.5-0.3,0.8-0.8,0.8-1.4
			C97.4,97.3,97.1,96.8,96.6,96.5z M104.4,97.8L104.4,97.8l0-0.1c-0.3-0.2-0.7-0.3-1.1-0.3c-0.2,0-0.4,0-0.6,0.1
			c-0.7,0.2-1.2,0.6-1.3,1.1l0,0.1l0.1,0.1c0.3,0.2,0.7,0.3,1.1,0.3c0.2,0,0.4,0,0.6-0.1C103.8,98.7,104.3,98.3,104.4,97.8z
			 M93.7,99.1L93.7,99.1l-0.1,0.1c-0.2,0.5-0.1,1.1,0.3,1.6c0.4,0.5,0.9,0.8,1.5,0.8l0,0c0,0,0.1,0,0.1,0l0.1,0l0-0.1
			c0.2-0.5,0.1-1.1-0.3-1.6C94.9,99.4,94.3,99.1,93.7,99.1z M101,97.5L101,97.5l-0.1-0.1c-0.6,0-1.1,0.4-1.5,0.9
			c-0.3,0.5-0.3,1.2,0,1.6l0,0.1l0.1,0c0.6,0,1.1-0.4,1.5-0.9C101.3,98.6,101.3,98,101,97.5z M102.7,99.1L102.7,99.1
			c-0.6,0-1.3,0.3-1.7,0.8c-0.4,0.5-0.5,1.1-0.3,1.6l0,0.1l0.1,0c0,0,0.1,0,0.1,0l0,0c0.5,0,1.1-0.3,1.5-0.8
			C102.9,100.3,103,99.7,102.7,99.1L102.7,99.1z M87.8,104.1L87.8,104.1L88,104c0.3-0.5,0.2-1.1-0.2-1.6c-0.4-0.5-0.9-0.8-1.5-0.8
			h-0.1l0,0.1c-0.3,0.5-0.2,1.1,0.2,1.6C86.7,103.8,87.3,104.1,87.8,104.1z M81.5,104.1L81.5,104.1c0.2,0.1,0.4,0.1,0.5,0.1
			c0.4,0,0.9-0.2,1.3-0.5c0.5-0.4,0.8-1,0.7-1.5l0-0.1l-0.1,0c-0.5-0.2-1.2,0-1.7,0.4C81.7,102.9,81.4,103.5,81.5,104.1L81.5,104.1z
			 M80.5,102.9c0.2,0,0.4,0,0.5-0.1c0.7-0.1,1.2-0.5,1.4-1l0-0.1l-0.1-0.1c-0.4-0.4-1.1-0.5-1.7-0.3c-0.7,0.1-1.2,0.5-1.4,1l0,0.1
			l0.1,0.1C79.6,102.8,80,102.9,80.5,102.9z M85.5,100.6L85.5,100.6l0-0.2c-0.4-0.4-1-0.6-1.7-0.5c-0.7,0.1-1.2,0.4-1.5,0.9l0,0.1
			l0.1,0.1c0.3,0.3,0.8,0.5,1.4,0.5l0,0c0.1,0,0.2,0,0.3,0C84.7,101.4,85.2,101,85.5,100.6z M88.2,84.5
			C88.2,84.5,88.2,84.5,88.2,84.5l0.2,0l0-0.1c0.2-0.5,0.1-1.1-0.3-1.6c-0.4-0.5-1-0.8-1.6-0.8l-0.1,0l0,0.1
			c-0.2,0.5-0.1,1.1,0.3,1.6C87.1,84.2,87.6,84.5,88.2,84.5z M85,102.1L85,102.1h-0.1c-0.5,0.3-0.8,0.8-0.8,1.4
			c0,0.6,0.3,1.2,0.8,1.4l0.1,0l0.1,0c0.5-0.3,0.8-0.8,0.8-1.4C85.8,103,85.5,102.4,85,102.1z M79,99.7L79,99.7
			c0.2,0.6,0.8,1,1.4,1.1c0.2,0,0.3,0,0.5,0l0,0c0.5,0,1-0.2,1.3-0.4l0.1-0.1l0-0.1c-0.2-0.5-0.7-0.9-1.4-1c-0.2,0-0.3,0-0.5,0
			C79.8,99.2,79.4,99.3,79,99.7L79,99.7z M86.4,96.1L86.4,96.1l-0.1,0c-0.6,0.1-1.1,0.5-1.4,1.1c-0.3,0.6-0.2,1.2,0.1,1.6l0,0.1
			l0.1,0c0.6-0.1,1.1-0.5,1.3-1.1C86.8,97.2,86.7,96.6,86.4,96.1z M82.5,91.5L82.5,91.5l-0.1,0.1c-0.1,0.5,0.2,1.1,0.7,1.5
			c0.4,0.3,0.8,0.5,1.3,0.5c0.2,0,0.3,0,0.4-0.1l0.1,0l0-0.1c0.1-0.5-0.2-1.1-0.7-1.5c-0.4-0.3-0.8-0.5-1.3-0.5
			C82.7,91.5,82.6,91.5,82.5,91.5z M79.2,97L79.2,97l0,0.2c0.3,0.4,0.9,0.7,1.6,0.7h0c0.7,0,1.3-0.3,1.6-0.7l0.1-0.1L82.4,97
			c-0.3-0.4-0.9-0.7-1.6-0.7h0C80.1,96.3,79.5,96.6,79.2,97z M87.9,87L87.9,87l-0.1,0c-0.5,0.3-0.7,0.9-0.6,1.5
			c0.1,0.6,0.5,1.1,1,1.3l0.1,0l0.1,0c0.5-0.3,0.7-0.9,0.6-1.5C88.8,87.8,88.4,87.2,87.9,87z M83.4,89.3L83.4,89.3
			c-0.3,0.5-0.3,1.1,0.1,1.7c0.3,0.5,0.9,0.9,1.5,0.9l0.1,0l0-0.1c0.3-0.5,0.2-1.1-0.1-1.6C84.6,89.7,84,89.3,83.4,89.3L83.4,89.3z
			 M86.3,88.6c-0.6-0.3-1.3-0.3-1.8,0l-0.1,0l0,0.1c0,0.5,0.5,1,1.1,1.3c0.3,0.1,0.6,0.2,1,0.2l0,0c0.3,0,0.6-0.1,0.8-0.2l0.1,0
			l0-0.1C87.3,89.4,86.9,88.9,86.3,88.6z M117.3,99.7L117.3,99.7c-0.5-0.4-1.1-0.6-1.8-0.5c-0.7,0.1-1.2,0.5-1.4,1l0,0.1l0.1,0.1
			c0.3,0.3,0.8,0.4,1.3,0.4l0,0c0.2,0,0.3,0,0.5,0C116.6,100.6,117.1,100.3,117.3,99.7L117.3,99.7z M82.1,93.1L82.1,93.1
			c-0.3,0.5-0.3,1.2,0.1,1.7c0.3,0.5,0.9,0.9,1.5,0.9l0.1,0l0-0.1c0.3-0.5,0.2-1.1-0.1-1.6C83.3,93.5,82.7,93.1,82.1,93.1L82.1,93.1
			z M89.2,103.2c0.2,0.1,0.5,0.1,0.7,0.1c0.4,0,0.8-0.1,1.1-0.3l0.1-0.1l0-0.1c-0.1-0.5-0.6-0.9-1.3-1.1c-0.6-0.2-1.3-0.1-1.8,0.2
			l-0.1,0.1l0,0.1C88,102.5,88.5,103,89.2,103.2z M80.4,94.4c-0.3,0-0.7,0.1-0.9,0.2l-0.1,0l0,0.1c0.1,0.5,0.5,1,1.1,1.2
			c0.3,0.1,0.6,0.2,0.9,0.2c0.3,0,0.7-0.1,0.9-0.2l0.1,0l0-0.1c-0.1-0.5-0.5-1-1.1-1.2C81,94.5,80.7,94.4,80.4,94.4z M111.2,98.8
			L111.2,98.8c0.4-0.5,0.4-1.1,0.2-1.7c-0.3-0.6-0.8-1-1.4-1.1l-0.1,0l-0.1,0.1c-0.3,0.4-0.4,1-0.1,1.6
			C110,98.3,110.8,98.8,111.2,98.8L111.2,98.8z M108.4,104L108.4,104l0.1,0.1c0.6,0,1.2-0.3,1.5-0.8c0.4-0.5,0.4-1.1,0.2-1.6l0-0.1
			h-0.1c-0.6,0-1.2,0.3-1.5,0.8C108.2,102.9,108.1,103.6,108.4,104z M110.9,100.5L110.9,100.5c0.3,0.6,0.8,0.9,1.5,1
			c0.1,0,0.2,0,0.3,0l0,0c0.6,0,1.1-0.2,1.4-0.5l0.1-0.1l0-0.1c-0.2-0.5-0.8-0.8-1.5-0.9C111.9,99.8,111.3,100,110.9,100.5
			L110.9,100.5z M115.9,102.9L115.9,102.9c0.5,0,0.9-0.1,1.2-0.4l0.1-0.1l0-0.1c-0.2-0.5-0.7-0.9-1.4-1c-0.6-0.1-1.3,0-1.7,0.3
			l-0.1,0.1l0,0.1c0.2,0.5,0.7,0.9,1.4,1C115.5,102.9,115.7,102.9,115.9,102.9z M111.3,105L111.3,105h0.1c0.5-0.3,0.8-0.8,0.8-1.4
			c0-0.6-0.3-1.2-0.8-1.4l-0.1,0l-0.1,0c-0.5,0.3-0.8,0.8-0.8,1.4C110.5,104.2,110.8,104.8,111.3,105z M106.5,103.3L106.5,103.3
			c0.2,0,0.5,0,0.7-0.1c0.6-0.2,1.1-0.6,1.3-1.1l0-0.1l-0.1-0.1c-0.4-0.3-1.1-0.4-1.8-0.2c-0.7,0.2-1.1,0.6-1.3,1.1l0,0.1l0.1,0.1
			C105.7,103.2,106.1,103.3,106.5,103.3z M113,103.7c0.4,0.3,0.8,0.5,1.3,0.5h0c0.1,0,0.3,0,0.4-0.1l0.1,0l0-0.1
			c0.1-0.5-0.2-1.1-0.7-1.5c-0.5-0.4-1.2-0.5-1.7-0.4l-0.1,0l0,0.1C112.2,102.7,112.5,103.3,113,103.7z M94.6,95.5L94.6,95.5
			l0.1-0.1c0.2-0.5,0-1.1-0.4-1.6c-0.4-0.4-0.9-0.6-1.4-0.6c-0.1,0-0.1,0-0.2,0l-0.1,0l0,0.1c-0.2,0.5,0,1.1,0.4,1.6
			c0.4,0.4,0.9,0.6,1.4,0.6C94.5,95.5,94.5,95.5,94.6,95.5z M94.6,97L94.6,97c0.1,0,0.2,0,0.3,0l0,0c0.5,0,1.1-0.2,1.4-0.6
			c0.4-0.5,0.6-1.1,0.4-1.6l0-0.1l-0.1,0c-0.1,0-0.1,0-0.2,0c-0.5,0-1.1,0.2-1.4,0.6C94.6,95.8,94.4,96.4,94.6,97L94.6,97z
			 M106.4,97.5L106.4,97.5l-0.1,0c-0.5,0.3-0.8,0.8-0.8,1.5c0,0.6,0.3,1.2,0.8,1.4l0.1,0l0.1,0c0.5-0.3,0.8-0.9,0.8-1.5
			C107.3,98.4,106.9,97.8,106.4,97.5z M91.4,97.6L91.4,97.6c0.3,0,0.5,0,0.8-0.1c0.6-0.2,1.1-0.7,1.2-1.2l0-0.1l-0.1-0.1
			c-0.4-0.3-1.1-0.4-1.8-0.2c-0.6,0.2-1.1,0.7-1.2,1.2l0,0.1l0.1,0.1C90.7,97.5,91,97.6,91.4,97.6z M90.1,97.5L90.1,97.5l-0.1,0
			c-0.5,0.3-0.8,0.8-0.8,1.4c0,0.6,0.3,1.2,0.8,1.5l0.1,0l0.1,0c0.5-0.3,0.8-0.8,0.8-1.4C90.8,98.4,90.5,97.8,90.1,97.5z
			 M100.6,90.2L100.6,90.2l0.1-0.1c0.2-0.5,0-1.1-0.4-1.6c-0.4-0.5-1.1-0.7-1.6-0.7l-0.1,0l0,0.1c-0.1,0.2-0.1,0.4-0.1,0.6l-0.1,0
			c-0.5-0.3-1.2-0.3-1.8,0c-0.6,0.3-1.1,0.7-1.1,1.3l0,0.1l0.1,0c0.2,0.1,0.6,0.2,0.9,0.2l0,0c0.3,0,0.6-0.1,0.9-0.2
			c0.6-0.3,1.1-0.7,1.1-1.3l0-0.1c0.1,0.3,0.2,0.6,0.5,0.9c0.4,0.4,0.9,0.7,1.4,0.7C100.5,90.2,100.6,90.2,100.6,90.2z M96.9,90.8
			c-0.2-0.1-0.4-0.1-0.7-0.1c-0.4,0-0.7,0.1-1.1,0.3c-0.6,0.3-0.9,0.9-0.9,1.4v0.1l0.1,0c0.2,0.1,0.4,0.1,0.7,0.1
			c0.4,0,0.7-0.1,1.1-0.3c0.6-0.3,0.9-0.9,0.9-1.4L96.9,90.8L96.9,90.8z M97.4,94L97.4,94c-0.1-0.6-0.6-1-1.3-1.3
			c-0.6-0.2-1.3-0.1-1.8,0.2L94.3,93l0,0.1c0.1,0.5,0.6,1,1.2,1.2c0.2,0.1,0.5,0.1,0.7,0.1C96.7,94.4,97,94.3,97.4,94L97.4,94z
			 M57.7,80v-3.2c-0.3-0.2-0.6-0.4-0.9-0.6c0,0,0,0,0,0l0,0c-0.9-0.5-2-0.2-2.5,0.7c-0.5,0.9-0.2,2,0.7,2.5
			c-0.1,0.6-1.2,1.9-2.1,2.3c-0.5,0.2-1.1,0.4-1.8,0.4c-0.4,0-0.8-0.1-1.2-0.2c0.4-0.3,0.8-0.6,1.1-1c0.9-1.2,1.2-2.7,0.8-4.7
			c-0.2-0.7-0.7-1.3-1.4-1.4c-0.6-0.1-1.3,0.1-1.7,0.6c-1.3-0.1-4.4-2.6-5-3.4c-2-2.8-1.5-5.7-0.8-7.7c1.6-4,5.7-7.5,9.6-8.2
			c0.2,0,0.3,0,0.5,0c-0.5,0.5-1.6,1.1-2,1.3c-0.2,0.1-0.5,0.3-0.6,0.4c-2.5,1.5-3.1,4.2-3.5,6.1c-0.3,1.3-0.5,2.2-0.9,2.2
			c-0.7,0.1-1.3,0.7-1.4,1.5c-0.1,0.7,0.2,1.5,0.9,1.9c1.3,0.8,3,1.2,4.7,1.2c2.4,0,4.5-0.9,6-2.5c0.3,0.3,0.5,0.5,0.9,0.7
			c0.2,0.1,0.4,0.2,0.6,0.3c1.2,0.6,2.3,0.9,3.3,0.9c0,0,0,0,0.1,0c2,0,3.5-0.4,4.6-0.9c0,0.4,0.1,0.9,0.2,1.3c0,0,0,0,0,0.1
			c0.2,0.7,0.6,1.3,0.9,2c0.1,0.3,0.4,0.6,0.5,1h1.8c-0.4-1-1.2-2.1-1.6-3.1c-0.2-0.5-0.1-1,0-1.5c0,0,0,0,0,0
			c0.2-0.7,0.8-1.3,1.1-1.7c0.5-0.6,0.8-1.4,0.5-1.7l0,0.1c-0.1,0.3-0.3,0.5-0.6,0.7c-0.1,0.1-0.1,0.1-0.2,0.2c0,0,0,0,0,0
			c-1.4,1-3,0.8-3.1,1.2c2.6-11.8,14.6-10.6,14.6-10.6c-0.5-0.5-3.8-0.5-4.5-0.4c-9.8,0.5-12,11.4-12,11.4c-1.2,1-5.4,0.6-6.3-1.5
			c0,0,0.3-0.8,0.5-1.2c1.8-5.5,6.7-7.3,8.7-9L66,56.5c-2,0.7-7.1,2.5-9.3,7.2c-0.2,0.4-0.3,0.7-0.4,1.1c-2.3,5.6-7.6,4.8-9.8,3.4
			c3.2-0.6,1.3-6.4,5-8.6c1.1-0.7,3.3-1.7,3.7-3c0.6-1.8-1.4-2.2-2.8-1.9c-7.6,1.4-15.4,11.3-10,18.8c0.9,1.3,6.4,5.8,7.9,3.6
			c0.8,3.9-2.1,4.3-3.6,4.2c-0.2,0-0.5-0.1-0.7-0.1c0,0-0.1,0-0.1,0l0,0c0,0,0,0,0,0c0.1,0,0.5,1.2,1.9,2.1c1.8,1.1,4.3,1.4,6.2,0.5
			c1.6-0.8,4.6-4.2,2.1-5.5C56.7,78.6,57.3,79.2,57.7,80z M74.7,71.1c0.1,0.2,0.2,0.4,0.3,0.5c0.3,0.5,0.7,0.9,1.1,1.3
			c0.4-1.4,0.9-2.6,1.7-3.5c0-1.1,0.3-2.3,1-3.5c0,0,0,0,0,0l0,0C76.1,66,73.2,68.7,74.7,71.1z M60.3,159.1c0.2,0.6,0,1.3-0.5,1.7
			l-0.1,0.1c-0.5,0.5-1.3,0.7-2,0.4c-0.4,0.5-0.9,1.3-1.2,1.8c-0.7,1.2-1.4,2.3-2.3,3c-0.9,0.7-2,1.1-3.1,1.1c-0.1,0-0.2,0-0.3,0
			c0.1,0.2,0.1,0.4,0.1,0.5c0,1-0.7,1.7-1.7,1.8c-0.1,0-0.2,0-0.3,0c0,0,0,0,0,0c0,0,0,0,0,0c-0.2,0-0.4,0.1-0.7,0.2
			c-0.5,0.1-1.1,0.3-1.9,0.3c-0.3,0-0.6,0-0.9-0.1c-1.5-0.3-3.1-1.4-4.3-2.7c-0.1,0.1-0.3,0.1-0.4,0.1c-0.9,0.1-1.7-0.4-2-1.2
			c-0.2-0.4-1.2-1.2-1.9-1.8c-0.7-0.6-1.5-1.2-2.1-1.9c0,0,0,0,0,0c-0.7-0.8-1-1.7-1.2-2.5c-0.3,0.2-0.5,0.4-0.7,0.6
			c-0.5,0.5-1.4,0.7-2,0.3s-1.1-1-1-1.8c0-0.6-0.1-1.4-0.2-2.3c-0.3-1.8-0.6-4,0.2-6.1c0.5-1.2,1.1-2.4,1.8-3.5
			c-0.2-0.1-0.4-0.2-0.6-0.3c-2.6-1.6-6.2-4.2-7.8-8.1c-0.3-0.8-1.3-4,0-6c0.6-0.9,1.5-1.4,2.6-1.4c0.7-1.7,1.9-3.1,3.4-3.9
			c0.1,0,0.2-0.1,0.2-0.1c-0.2-0.2-0.4-0.3-0.5-0.5c-3.7-0.1-7-2.7-8.6-5.3c-2.5-4.1-2.2-9.7,0.8-14c0.2-0.3,0.4-0.5,0.6-0.8
			c-0.8-0.1-1.7-0.2-2.5-0.3c-3.1-0.6-6.1-2.4-8.4-5c-2.4-2.7-3.9-6.2-4.2-9.9c0,0,0,0,0-0.1c-0.3-7,3.3-14.2,8.6-17.6
			c1.4-0.9,2.9-1.6,4.4-2c-0.2-0.3-0.4-0.6-0.6-1c-1.9-3.8-2-10,2-15.5c0-0.1,0.1-0.1,0.1-0.2c2.8-3,6-5.9,10.3-7.1
			c0.4-0.1,0.9-0.2,1.3-0.3c0.4-0.1,0.8-0.2,1.3-0.3c-0.3-0.2-0.5-0.4-0.8-0.6c-1.3-1.1-2-2.6-2.6-4.1c-0.6-1.8-0.8-3.3-2.1-5.6
			c0,0,1.7-0.7,4.3-0.3c0,0-0.2-0.3-0.2-0.3c-0.3-0.8-0.6-1.6-0.5-2.6c0-0.1,0-0.2,0-0.2l0,0c0-0.1,0-0.1,0-0.2c0,0,0,0,0-0.1
			c0.2-0.9,0.6-1.9,1-2.8c0.4-0.9,1-2.1,0.9-2.7c-0.1-0.9,0.4-1.7,1.2-2c0.2-0.1,0.3-0.1,0.5-0.1c0.5-1.9,1.5-3.7,2.7-4.7
			c0.9-0.8,1.9-1,2.7-1.1c0.3-0.1,0.7-0.1,0.8-0.2l0,0c0.8-0.6,2-0.3,2.5,0.5c0.2,0.3,0.3,0.6,0.3,0.9c0.8-0.5,1.7-0.8,2.8-0.8
			c0.4,0,0.7,0,1.1,0.1c1.2,0.2,2.4,1,3.7,1.7c0.6,0.4,1.6,0.9,2.2,1.2c0.5-0.6,1.2-0.8,2-0.6l0.1,0c0.6,0.2,1.1,0.7,1.2,1.4l0,0
			c0,0.1,0,0.1,0,0.2c0,0.1,0,0.2,0,0.3c0.1,0.5,0,1-0.3,1.4c-0.9,1.3-1.9,1.8-3.4,1.8c-0.3,0-0.7,0-1-0.1c-0.3,0-0.7-0.1-1.1-0.1
			l-0.1,0c-4.3,0-5.7,3.7-5.7,6.9c0,0.6,0.1,1.3,0.2,1.9c0.4-0.7,0.9-1.2,1.6-1.7c0.1,0,0.1-0.1,0.2-0.1c0.2-0.1,0.4-0.2,0.6-0.2
			l0,0c0.5-0.1,1-0.1,1.4,0.2c0.4,0.3,0.7,0.7,0.8,1.1l0,0.1c0.2,0.8-0.2,1.7-1,2c-0.1,0.1-0.1,0.3-0.1,0.5c0,0.2,0.1,0.4,0.4,0.6
			c0.3,0.1,0.5,0.1,0.8,0.1c0.4,0,0.8-0.1,1.1-0.3c-0.2-0.7-0.3-1.4-0.2-2.1v0h0c0.1-1,0.9-1.7,2-1.7c0.9,0.1,1.7,0.9,1.7,1.8
			c0.3,0.2,1.4,0.6,4.8,0.6c0.4,0,0.8,0,1.2,0c0.3,0,0.6,0,0.8,0c0.4,0,0.7,0,0.9,0c2,0.2,4.5,1.4,6.4,3c0.1,0,0.1,0.1,0.2,0.2
			c0.1,0.1,0.2,0.2,0.4,0.4c0.9,0.9,2.8,2.7,4.7,3.6c1.3,0.6,2.5,1.3,3.6,2c2,1.3,3.8,2.9,5.3,4.6c0,0.2,0,0.4,0,0.6
			c0,1.1,0.2,2.1,0.5,3.1c0-0.1-0.1-0.1-0.1-0.2c-0.8-1.1-1.9-2.2-3.3-3.5c-1.4-1.2-3-2.5-5-3.6c-2-1.1-4.3-1.9-6.8-2.5
			c-2.5-0.6-5.3-0.9-8.1-0.9c-2.8,0-5.7,0.4-8.6,1.1c-0.7,0.2-1.4,0.4-2.1,0.6c-0.7,0.3-1.4,0.5-2.1,0.8c-0.7,0.3-1.4,0.6-2,0.9
			c-0.7,0.4-1.3,0.7-2,1.1c-2.5,1.6-4.7,3.6-6.4,5.9c-1.8,2.3-3.1,4.9-4,7.5c-0.9,2.6-1.3,5.3-1.4,7.8c0,0.6,0.1,1.2,0.1,1.9
			c0,0.6,0.2,1.2,0.2,1.8c0.2,1.2,0.5,2.4,0.8,3.4c0.6,2.1,1.3,4.1,2.2,5.7c0.4,0.8,0.8,1.5,1.3,2.2c0.1,0.2,0.2,0.3,0.3,0.5
			c0.1,0.2,0.2,0.3,0.3,0.4c0.2,0.3,0.4,0.6,0.6,0.8c0.4,0.6,0.8,0.9,1.2,1.3c0.2,0.2,0.3,0.4,0.5,0.5c0.1,0.1,0.3,0.3,0.4,0.4
			c0,0,0.1,0.1,0.1,0.1c2.5-0.1,4.9,0.3,7.3,1c0.1-0.1,0.1-0.2,0.1-0.4c0.3-1-0.8-2.1-1.5-2.4c3.1,1.2,7.7,0.5,10.1-1.9
			c0.5-0.5,0.8-1,1.1-1.6v2.7c-1.8,1.7-4.6,2.8-7.6,2.8c0.2,0.1,0.3,0.1,0.5,0.2c2.7,1.1,5.1,2.8,7.1,5v4.4c-0.6-1-1.3-1.9-2-2.7
			c-1.1-1.2-2.2-2.2-3.6-3c-1.3-0.9-2.8-1.4-4.3-2c-0.3-0.1-0.5-0.2-0.8-0.3c0,0,0,0,0,0c-1.3-0.4-2.5-0.7-3.8-0.8
			c-0.5-0.1-1-0.1-1.5-0.1v0c-0.4,0-0.8,0-1.1,0c-0.1,0-0.1,0-0.2,0c-0.1,0-0.2,0-0.3,0c-0.2,0-0.3,0-0.5,0c0,0-0.1,0-0.1,0
			c-0.2,0-0.3,0-0.5,0c0,0-0.1,0-0.1,0c-0.2,0-0.4,0-0.5,0.1l-0.6,0.1c-0.2,0-0.4,0.1-0.5,0.1c-0.4,0.1-0.7,0.3-1.1,0.4
			c-0.7,0.3-1.4,0.7-1.9,1.2c-0.3,0.3-0.5,0.5-0.5,0.8c-0.1,0.3,0,0.6,0.2,0.8c0.1,0.2,0.2,0.3,0.4,0.3c0,0,0,0,0,0c0,0,0.1,0,0.1,0
			c0,0,0,0,0.1,0c0,0,0,0,0,0c0,0,0.1,0,0.1,0c0,0,0,0,0,0c0,0,0.4,0,1-0.2c0,0,0,0,0,0c0,0,0,0,0,0l0,0c0,0,0,0,0,0l0,0
			c0.6-0.2,1.4-0.5,2.4-1c-1,1.1-2,1.5-2.8,2.1c-0.6,0.6-1.2,1.3-1.6,2.1c-0.3,0.5-0.5,1.1-0.6,1.6c-0.1,0.3-0.1,0.6-0.1,0.9
			c0,0.3,0,0.5,0.1,0.9c0,0.3,0.1,0.6,0.2,0.8c0.1,0.3,0.3,0.5,0.4,0.8c0.3,0.5,0.7,0.9,1.2,1.2c0.2,0.2,0.5,0.3,0.8,0.4
			c0.3,0.1,0.6,0.2,0.9,0.2c0,0,0,0,0,0c0.1,0,0.2,0,0.3,0c0,0,0,0,0,0c0.1,0,0.2,0,0.3,0c-1.2-0.4-1.7-2.5-1.6-3.5
			c0.2-1.7,1.3-2.8,2.7-3.3c1.1-0.4,2-0.2,2-0.2c-0.6,0.7-1.3,1.3-1.1,2.3c0.1,0.5,0.3,0.9,0.8,1.3c0.4,0.3,1.1,0.4,1.2,0.5
			c-1-1.8,4.1-3.1,5.3-3.1c6.7-0.1,9.7,8.3,7.6,13.1c-0.4,0.9-1.4,1.9-2.3,0.8c-0.6-0.8-0.4-2.4-0.4-3.3c0.1-2.9-4.2-5-3.3-7
			c-1.7,0.7-4.4,4.3-1.8,7.9c0.2,0.2,0.4,0.5,0.5,0.7c2,3.1,1.1,6.6,0.8,8l0,0.2c0-2.4,0.3-5.7-2-8.3c-0.2-0.2-0.6-0.7-0.7-0.9
			c-0.4-0.1-0.6-0.1-1,0.1c-1.3,0.5-0.9,1.8-0.2,2.7c1.1,1.3,1.1,0.9,0.3,2.3c-0.4,0.7-0.2,1.2,0.1,2c0.9,2.6,1.8,9-2.4,9.6
			l-0.1,0.1c1-0.7,2.3-2.2,2.3-4.9c0-1.5-0.3-3.2-0.9-4.2c0.1,0.6-0.4,1.9-0.9,2.1c-1.9,0.6-2.9-0.2-3.2,1.9c-0.4,2.5-0.7,5.5-4,5.4
			c-1.1,0-3.7-0.7-5.3-1.5c2.1-0.2,4.3-1.1,5.4-2.8c1.4-2,1.1-5.5-2-5.6c1.3,0,0.1,2.8-0.3,3.3c-1.1,1.2-3.4,1.5-4.8,0.9
			c-2.5-0.9-4-3.8-4.2-6.3c-0.2-2.4,0.4-4.3,2.1-6c-1.1,1.1-1.9,3.1-1.2,4.4c0.6,1.2,2.9,1.7,3.2,2.6c-2.4-5.4,4.4-8.9,8.9-9
			c0.6,0,1.2,0,1.8,0.1l0,0c0,0,0,0,0,0c0.5,0.1,0.9,0.2,1.4,0.3c0.8,0.2,1.7,0.5,2.3,0.9c-1.4-1.6-3.2-2.8-5.2-3.4
			c-0.6,0.1-2.3,0.4-3.5-0.7c-3.9-0.3-7.9,1-10.4,3.9c-0.3,0.3-0.5,0.6-0.8,1c-2.4,3.5-3,8.3-0.8,11.9c1.5,2.3,4.4,4.4,7.2,4.4
			c0.2,0,0.3,0,0.5,0c2.2,2.1,5.1,3.5,7.9,3.9c0,0,0.1,0,0.1,0v0c0,0,0,0,0,0l0,0c0.6,0.1,1.2,0.1,1.9,0.1c1,0,2.1-0.1,3.1-0.2
			c1.6-0.2,3-0.7,4.5-1.2c1.5-0.6,2.9-1.3,4.1-2.3c0.4-0.3,0.8-0.7,1.2-1c0.1,1.2-0.5,2-1.7,2.7c-3.3,1.9-5.7,2.8-7.8,3.2
			c-0.9,0.2-2,0.4-1.7,1.6c0.1,0.3,0.3,0.5,0.3,0.5c2.4,0.5,5.8-2,7.8-3l-0.1,0.1c-2,2.9-5.1,3.7-6.6,3.9c-3.7,0.4-4.2,3.4-3.9,4.9
			c1-1.7,3.9,0.5,5.9-1.2c0.6-0.5,1.6-1.6,2.5-1.5c1.2,0,1,1.2,0.6,2c-2.2,4-9.5,6.6-12.7,2.1c-0.6-0.8-2.2-4.8-0.5-5.1
			c-0.1,0-0.4-0.4-0.9-0.5c-0.5-0.1-0.9,0-1.3,0.2c-0.8,0.4-0.9,1.3-1,2c0-0.1-0.5-0.2-0.8-1.4c-0.3-1.2,0-2.7,0.9-3.6
			c0.7-0.7,3.1-1.7,3.5-0.3c-0.5-2-2.9-2.6-4.6-1.8c-1.8,0.9-3.1,3.4-3,5.4c0-0.5-0.5-1.3-1.1-1.3c-2.3-0.1-1.5,3.8-1.1,4.8
			c1.3,3.1,4.2,5.6,7.1,7.3c0.8,0.5,1.6,0.8,2.5,1.1c-1.3,1.4-2.3,3.1-3,4.9c-1,2.6,0.3,5.8,0.2,7.9c0.5-0.5,1.1-1,1.8-1.5
			c0.8-0.6,1.3-1.1,1.7-1.7c0,0,0-0.1,0-0.1c0.1-0.1,0.1-0.2,0.2-0.3c0.2-0.4,0.3-0.8,0.3-1.2l0-0.1c0.7,0.5,0.6,2-0.2,3.3
			c-0.2,1.2-0.2,2.4,0.8,3.5c1.2,1.4,3.7,2.7,4.3,4.2c0-0.6-1.2-3.9,0.5-5.1c0,0,0,0,0,0c-1.5,2.8,2.1,7.2,4.9,7.8
			c1.2,0.3,2.3-0.5,3.3-0.4c-1.7-0.2-3.4-2-2.6-3.7c2.4,0.4,3.3,3.3,6.6,0.6c1.8-1.4,3.5-6.8,5.3-5.1c-0.8-1.9-2.2-0.3-3.9,0.5
			c-6.1,3.1-11.2-3.2-11.3-8.9c0.1-1.8,0.6-3.8,5.1-7l0,0c0.6-0.5,1.2-1,1.8-1.5c4.9-5.2,6.8-12.8,5.2-18.3c-0.2-0.7-0.4-1.4-0.7-2
			c0,0,0,0,0,0c1.2-1.4,2.3-2.9,3.1-4.6v4.5c0,0-0.1,0.1-0.1,0.1c-0.2,0.3-0.4,0.5-0.7,0.8c0,0.1,0.1,0.2,0.1,0.3
			c1.9,6.4-0.5,14.6-5.6,20c0,0,0,0,0,0c-0.5,0.5-1.1,1-1.7,1.5c-0.1,0.1-0.2,0.2-0.3,0.2c-4.1,2.9-4.2,4.3-4.3,5.5
			c0.1,4.5,3.4,7.9,6.3,7.9c0.8,0,1.6-0.2,2.4-0.6c0.3-0.2,0.6-0.4,0.9-0.5c0.7-0.4,1.5-1,2.6-1c0.6,0,1.3,0.2,1.9,0.5
			c0.3,0.2,0.7,0.5,0.9,1c0,0,0,0,0,0c0,0.1,0,0.1,0.1,0.2C60.2,158.9,60.3,159.1,60.3,159.1z M38.5,140.5c0.3,0.1,0.7,0.1,1,0.1
			c0.9,0,1.9-0.2,2.8-0.6c0,0,0,0,0,0c-0.5,0-1-0.1-1.5-0.1c-0.2,0-0.4,0-0.5-0.1C39.9,139.7,38.7,139.6,38.5,140.5
			C38.6,140.5,38.6,140.5,38.5,140.5z M34.7,133C34.7,133,34.7,133.1,34.7,133c0.1,0.1,0.1,0.1,0.2,0.1c0.6,0.2,1.1,0.7,1.2,1.4
			c0.1,0.7-0.2,1.4-0.7,1.8c0.1,0.8,0.6,2.2,0.9,2.6c0.3,0.4,0.6,0.7,1,1c-0.2-0.2-0.4-0.6-0.5-0.9c-0.3-1.3-0.1-3.3,1.1-5
			c0.3-0.4,0.8-0.9,1.5-1.3c0,0,0-0.1,0-0.1c-0.1-0.5-0.1-0.9,0-1.3c-0.7,0-1.4-0.1-2.1-0.2c-0.2,0-0.5-0.1-0.7-0.1
			c0,0.1,0,0.2,0,0.3C36.4,132.2,35.7,133,34.7,133C34.7,133,34.7,133,34.7,133z M36.9,123.3c-0.1,0.1-0.1,0.2-0.2,0.3
			c-0.4,0.5-0.8,1-1.4,1.4C36.2,125,36.6,124.7,36.9,123.3z M42.7,113.9c-0.1-0.1-0.1-0.1-0.2-0.2c-0.9-1.1-1.2-2.4-1-3.4
			c0,0,0,0,0-0.1c-1.2-1.2-3.4-1.4-4.3-1.4c-0.1,0-0.1,0-0.2,0c-3.1,0.1-6.1,1.8-7.1,3.3c-0.6,0.9-0.7,1.9-0.2,3
			c0.1,0.2,0.2,0.5,0.2,0.8c0,1-0.8,1.8-1.8,1.8c-0.2,0-0.4,0-0.7-0.1c0,0,0,0,0,0c-0.6-0.2-1-0.6-1.2-0.9c0.5,1.3,1.4,2.4,2.5,2.8
			c0.2,0.1,0.6,0.1,0.9,0.1c0.3,0,0.5,0,0.8-0.1c0.5-0.1,0.9-0.3,1.1-0.5c0.3-0.3,0.3-0.5,0.4-0.9c-0.3-0.3-0.5-0.8-0.5-1.3
			c0-1,0.9-1.8,1.9-1.8c1.8,0.1,3.3,0.9,4,2.4c0.3,0.6,0.5,1.2,0.5,1.8c0.7-1.3,2-1.4,2.7-1.5c0,0,0,0,0,0h0c0,0,0.6-0.1,0.9-0.1
			c-0.3-0.2-0.5-0.5-0.5-0.9c0-0.6,0.5-1.1,1.1-1.1c0,0,0.1,0,0.1,0c0-0.5,0.1-1.2,0.4-1.8C42.7,114,42.7,113.9,42.7,113.9z
			 M37.8,102c0,0,0,0.1,0,0.1c0.1,0.5,0.3,0.8,0.6,1.1c2,0.8,3.8,2.1,5.2,3.7c0-0.4,0.1-0.8,0.2-1.1c0.6-2.2,2.4-3.7,3.8-4.3
			c0.6-0.3,1.4-0.2,1.9,0.3c-0.6,0.3,0,1.2,0.6,1.9c0,0,0,0,0,0c0.2,0.2,0.6,0.6,0.9,0.9c0.8,0.8,1.8,1.8,2.3,3.1
			c-0.1-1.5-0.6-3-1.4-4.3c-0.8-1.3-2.4-2.8-4.9-2.8h-0.1c-0.7,0-2.7,0.6-3.5,1.1c0,0.1,0,0.1,0,0.2c0,0.9-0.7,1.7-1.6,1.8
			c-0.2,0-0.3,0-0.5,0c-0.7-0.1-1.6-0.4-2.4-1.3c-0.4-0.4-0.7-0.9-0.9-1.5c-0.1,0.2-0.2,0.3-0.2,0.5C37.7,101.5,37.8,101.7,37.8,102
			z M35.7,89.5c-0.3,0-0.6,0.1-0.9,0.1c-4.2,0-8.9-4.8-9-11.2c0-0.1,0-0.1,0-0.2c0-0.4,0.1-0.9,0.2-1.3c-0.6,0.1-0.8,0.4-0.7,2.9
			l0,0.2c0.1,2.3-1.1,3-2.3,3.4c-0.1,0-0.2,0.1-0.3,0.1c0,0.1,0.1,0.3,0.1,0.4c0,0.4-0.1,0.7-0.3,1c0.3,0.6,0.7,1.1,1.2,1.6
			c2.2,2.7-0.5,7.2-1.8,9.1c-0.4,0.8-1,1.5-1.7,1.9c-0.1,0-0.1,0.1-0.2,0.1c0.2,0,0.3,0,0.5-0.1c0.5-0.1,1.6-0.8,2.2-1.2
			c-0.1-0.6,0.1-1.3,0.7-1.7c0.4-0.3,0.9-0.4,1.4-0.4c-0.4-0.8-0.2-1.8,0.5-2.3c0.1-0.1,0.2-0.1,0.3-0.2c0.7-0.5,1.6-0.7,2.4-0.7
			c1.4,0,2.8,0.7,3.8,1.8C32.4,91.3,34.3,90.2,35.7,89.5z M29,104.6c1-0.5,4-2.7,2.3-4c-0.4-0.3-1.3,0-1.6,0.3
			c1.3-1.4,2-3.8,1.2-5.6c-0.7-1.6-2.8-2.7-4.4-1.6c1.2-0.7,2.2,1.5,2.3,2.4c0.1,1.2-0.6,2.4-1.6,3.1c-0.2,0.1-1.5,0.4-1.5,0.5
			c0.3-0.6,0.8-1.3,0.5-2c-0.2-0.4-0.4-0.7-0.8-0.9c-0.2-0.1-0.9-0.2-1-0.2c1,1.3-2.7,3.1-3.6,3.3c-5.1,1.2-8.6-5.1-7.7-9.3
			c0.2-0.8,0.8-1.7,1.6-1c0.6,0.5,0.7,1.9,0.8,2.6c0.3,2.4,3.8,2.7,3.4,4.4c0.4-0.3,0.9-0.8,1.2-1.4c1.4-2,3.1-5.4,2-7
			c-0.7-1.1-1.2-1.7-1.8-2.6c-0.1-0.1-3.8-4.5,0.2-8.6l0.1-0.1c-0.6,0.7-1.3,2.3-1.1,4.2c0.1,1.4,0.7,2.5,1.4,3.2
			c-0.1-0.5,0-1.2,0.4-1.8c1.3-0.8,2.2-0.3,2.1-2.1c-0.1-2.1-0.3-4.5,2.3-5c0.5-0.1,1.5-0.1,2.4,0c-0.2,1.1-0.4,2.2-0.5,3.4
			c0.1,6.8,6.3,11.3,9.3,8.7c0,0,0,0,0,0c-0.9,0.8-3.8,0.6-4.4-1.8c-0.3-1.4,0.4-2.7,1-3.5c-0.5-1.1-1-2.3-1.5-3.6
			c-0.4-1.1-0.7-2.2-1-3.5c-0.1-0.6-0.3-1.3-0.3-1.9c0-0.7-0.2-1.3-0.2-2c0-0.3,0-0.5,0-0.8c-0.1,0.1-0.2,0.2-0.3,0.3
			c-1,1.2-1.6,2.6-2,4.1c-1.2-0.5-2.5-0.8-3.8-0.9c-1.6-0.7-3.4-3-2.4-5.2c1-2.2,3.6-2.7,4.9-3.1c-0.1-0.8-0.2-2,0.2-3
			c1.7-4.1,5.1-4.5,6.7-6.6l-0.1,0.2c-0.3,2-3.7,4.2-4.8,7.1c-0.8,2.5,0.2,4.6,1.3,5.9c-1.2-1.3-0.4-2.9,1-4.5
			c0.2-0.7,0.4-1.3,0.6-2c1-2.8,2.5-5.5,4.4-7.9c2-2.4,4.3-4.5,7.1-6.2c0.7-0.4,1.3-0.7,2-1.1c0.8-0.4,1.5-0.6,2.2-0.9
			c0.7-0.2,1.5-0.5,2.2-0.7c0.7-0.2,1.5-0.4,2.2-0.6c2.8-0.6,5.7-0.9,8.4-0.9c0.2,0,0.5,0,0.7,0c3.9,0.1,7.7,0.8,10.9,2
			c-1.5-1.1-2.7-2.4-3.3-2.9l0,0c-1.6-1.5-3.9-2.6-5.6-2.8c-1.4-0.2-9.5,0.7-9.3-2.4c-0.1,1.2,0.3,2.8,1.8,3.9
			c1.9,1.1,4.8,0.9,5.8,1.9l0.1,0.1c-1.3-0.4-3.6,0.6-6.7-1c-0.6-0.4-1.1-0.9-1.4-1.5c-0.9,0.3-2.1,1-4.1,0.3
			c-2.2-1.5-1.2-4-0.2-4.4l0-0.1c-0.1,0-0.2,0.1-0.3,0.1c-2.2,1.3-1.8,4.6,0.4,7.3c-7.1-3.4-7-17.7,2.5-17.8c1.7,0,2.7,0.5,3.7-0.4
			l0,0c0.2-0.2,0.3-0.3,0.4-0.5c0,0,0,0,0,0c0,0,0,0,0,0c0.3-0.6-0.1-1-0.1-1s0,0.3-0.1,0.6l0,0c-0.1,0.3-0.2,0.4-0.4,0.6
			c0,0,0,0-0.1,0c-1.4,1-5-2.5-7.1-2.9c-3-0.6-4.1,2.5-6,3.8c-1.5-1.2-0.8-3.6,0.6-4.7c-0.9,0.7-2.3,0.4-3.3,1.2
			c-2.3,1.9-3.6,7.9-0.7,9.8c0,0-0.1,0-0.1,0c-1.8-0.2-2-2.2-2.2-3.3c-0.3-0.6-0.5-0.8-0.8-1.3c0.2,1.7-1.5,4.2-2,6.1
			c0,0.1,0,0.1,0,0.2c-0.1,1.9,1.5,3.5,2.4,4.6c0.1,0.1,0.2,0.2,0.2,0.3c0,0,0,0,0,0c0.4,0.6,0.5,1.2,0.3,1.6l0-0.1
			c-0.2-0.3-0.5-0.7-0.9-0.9c-0.1-0.1-0.2-0.1-0.3-0.2c0,0,0,0-0.1,0c-0.6-0.4-1.4-0.6-2.4-0.8c-0.8-0.1-1.7-0.3-2.4-0.6
			c1.2,1.9,1.5,5.6,3.8,7.5c1.1,1,2.4,1.8,3.8,2.5c-2,0.9-4.3,1.4-6.3,1.9c-3.8,1-6.8,3.7-9.4,6.5c-4.8,6.6-3,15,1.2,16.5
			c0,0,0,0-0.1,0c-2.6,0.1-5.3,1-7.5,2.4c-4.5,2.8-8,9.3-7.8,15.9c0.4,6.9,5.7,12.1,11.1,13.2C22.5,106,26.1,106,29,104.6z
			 M26.1,67.3C26.1,67.4,26.1,67.4,26.1,67.3c-0.2,0.1-0.3,0.1-0.4,0.2c-1.1,0.5-2,1.7-1.9,2.7c0.1,0.3,0.2,0.6,0.4,0.8
			c0.2,0.3,0.4,0.5,0.6,0.6c0.1,0,0.1,0.1,0.2,0.1l0,0c0.5,0.3,1.3,0.3,1.8,0.3c0,0,0,0,0,0c0.2,0,0.3,0,0.4,0c0,0,0,0,0,0
			c0.4-0.9,0.8-1.7,1.4-2.5c-0.6-0.8-1.1-1.6-1.3-2.5c-0.1,0-0.2,0.1-0.3,0.1C26.7,67.2,26.4,67.3,26.1,67.3L26.1,67.3z M17.3,96.1
			c-0.2-0.1-0.4-0.3-0.6-0.5c-0.2-0.2-0.5-0.3-0.7-0.5c0.2,0.3,0.4,0.6,0.6,0.9c0.3,0.3,0.6,0.7,1,1C17.4,96.7,17.3,96.4,17.3,96.1z
			 M78.3,125.4c-0.1-0.2-0.6,0.1-0.6,0.3c0,0,0.2,0.4,1.2,0.1C78.8,125.8,78.4,125.6,78.3,125.4z M81.1,124.6
			c-0.1,0.3,0.6,0.9,0.9,0.6c0.3-0.3,0.9-0.5,0.9-0.5C81.5,124,81.1,124.6,81.1,124.6z M124,129.7c0,0.4-0.3,0.8-0.8,0.8
			c0,0,0,0,0,0c-0.1,0-0.2,0-0.3,0c-2.1-0.8-3.5-1-4.8-0.8c-0.3,0-0.6-0.1-0.8-0.4c-0.2-0.3-0.1-0.6,0-0.8c0.2-0.2,0.3-0.4,0.5-0.6
			c-1-0.6-2-1.2-3.1-1.9l-0.4-0.2c0,0,0,0-0.1,0c-0.1-0.1-0.2-0.1-0.3-0.1l0,0c-0.2-0.1-0.4-0.1-0.6-0.1l-0.1,0
			c-0.4,0-0.7,0.1-1,0.4c-0.3,0.2-0.5,0.6-0.5,0.9c-0.1,0.3,0,0.7,0.2,1l0,0c0,0.1,0.1,0.1,0.1,0.2c0,0,0,0,0,0.1l0.4,0.4
			c0.1,0.1,0.1,0.1,0.2,0.2l0.2,0.2l0.2,0.2c0.1,0.2,0.2,0.3,0.4,0.6l0,0c0.4,0,0.8-0.1,1.2-0.1c0,0,0,0,0,0c0.7,0,1.4,0.1,2,0.3
			c0.3,0.1,0.6,0.2,0.9,0.3c0.3,0.1,0.7,0.3,0.9,0.5c0.8,0.5,1.4,1.1,1.8,1.9c0.1,0.1,0.1,0.2,0.1,0.3l0,0.1c0,0,0,0.1,0,0.1l0,0.1
			c0,0.1,0.1,0.2,0.1,0.3l0,0c0,0.1,0.1,0.3,0.1,0.4l0,0.2c0,0,0,0,0,0l0,0.1c0,0,0,0,0,0l0,0.1c0,0,0,0,0,0c0,0.1,0,0.2,0,0.3
			c0,0,0,0,0,0c0,0.2,0,0.4,0,0.7c0,0.6,0,1.8-0.6,2.8c-0.3,0.5-0.6,0.9-0.9,1.2c-0.4,0.4-0.8,0.7-1.3,0.9c-0.2,0.1-0.5,0.2-0.8,0.3
			c-0.3,0.1-0.5,0.1-0.7,0.2l0,0c0,0,0,0,0,0c-0.5,0.1-1.1,0.1-1.6,0c-1.2-0.2-2.2-0.7-3-1.6c-0.1-0.1-0.2-0.3-0.4-0.5
			c-0.2,0.2-0.5,0.5-0.7,0.7c-0.4,0.4-0.8,0.8-1.3,1.2c-0.3,0.2-0.5,0.5-0.9,0.8c-0.3,0.3-0.6,0.5-1,0.8c-0.8,0.6-1.6,1.1-2.4,1.6
			c-0.3,0.2-0.6,0.3-0.9,0.4c0.3,0.1,0.6,0.3,0.7,0.6c0,0.1,0.1,0.2,0.1,0.3c0.2,1.6-3.4,2.6-3.4,2.6l-0.6,1.1
			c0.4,0.1,0.8,0.3,1.1,0.6c0.5,0.2,0.9,0.6,1.3,1.1c0.4,0.6,0.5,1.2,0.4,1.9c-0.1,0.5-0.5,1-1,1.1c-0.5,0.1-0.9,0-1.3-0.4
			c-0.3,0.2-0.7,0.3-1.2,0.3c-0.5,0-1-0.2-1.3-0.6l-0.4,0c-0.1,0.5-0.4,0.8-0.8,1.1c0.3,0.4,0.3,0.9,0.1,1.3
			c-0.2,0.4-0.7,0.7-1.1,0.7c-0.1,0-0.1,0-0.2,0c-0.7-0.1-1.3-0.4-1.7-0.9c-0.4-0.4-0.6-0.8-0.7-1.3c-0.2,0.1-0.5,0.1-0.7,0.1
			c-0.1,0-0.2,0-0.3,0c-0.1,0.5-0.5,0.8-1,0.9c-0.5,0.1-1.1-0.1-1.3-0.6c-0.3-0.6-0.5-1.2-0.4-1.9c0-0.2,0.1-0.4,0.1-0.5
			c-0.3-0.1-0.5-0.3-0.7-0.5c-0.3-0.3-0.4-0.6-0.6-0.9c-0.1,0-0.3,0-0.4,0c0,0-0.1,0-0.1,0c-0.2,0.4-0.5,0.6-0.9,0.7
			c-0.5,0.1-1.1-0.2-1.3-0.6c-0.3-0.5-0.4-1.1-0.3-1.7c0-0.3,0.1-0.6,0.3-0.8c-0.2-0.3-0.2-0.6-0.2-0.9c0.1-0.6,0.4-1.1,0.8-1.6
			c0.5-0.5,1.2-0.7,1.8-0.7c0,0,0,0,0,0c0.2-0.1,0.4-0.1,0.6-0.1c0.4,0,0.7,0.2,1,0.4l0.7,0.2l0.5-0.6c-1.1-0.5-2.1-1.1-3-1.9
			c-0.5-0.4-0.9-0.9-1.3-1.3c-0.4-0.4-0.7-0.9-1-1.4c-0.3-0.4-0.5-0.9-0.7-1.4c0,0,0,0,0,0c-0.2-0.4-0.4-0.9-0.5-1.3
			c-0.1-0.4-0.3-0.8-0.4-1.3c0,0,0,0,0,0c-0.1-0.4-0.2-0.8-0.3-1.2c-0.3-1.5-0.4-2.8-0.5-4c0-0.3,0-0.6-0.1-0.9c0-0.1,0-0.2,0-0.3
			c-0.1,0-0.3,0-0.4,0c0,0-0.1,0-0.1,0c-1.6,0.5-3.4,1-4.2,1.1c-0.1,0-0.3,0.1-0.3,0.1c-0.1,0-0.2,0-0.4,0c-0.3,0-0.5-0.1-0.8-0.2
			c-0.4-0.2-0.6-0.6-0.8-0.9c-0.5,0.1-1,0.3-1.4,0.5c-0.5,0.2-1.1,0.4-1.7,0.4c-0.2,0-0.4,0-0.6-0.1c-0.9-0.2-1.3-0.7-1.4-1.1
			c-0.4-0.9,0.1-1.9,0.2-2.1c0.1-0.1,0.1-0.2,0.2-0.3c-0.1-0.7,0.2-1.3,0.2-1.4c0.1-0.3,0.4-0.5,0.7-0.6c0.3,0,0.7,0.1,0.8,0.4
			c0.2,0.3,1,1.2,1.6,1.2c-0.2-0.7-0.1-1.5,0.2-2.4c0.1-0.3,0.3-0.5,0.6-0.6s0.6-0.1,0.9,0.1c0,0,0.7,0.3,1.8,0.5
			c0.2-0.4,0.5-0.8,0.9-1.1c0.2-0.1,0.3-0.2,0.5-0.2c0.3,0,2.3-0.3,4.1,0c0.4-0.3,0.7-0.5,0.7-0.5c0.1-0.1,0.3-0.1,0.4,0
			c0,0,1.2,0.6,1.6,0c0.1-0.1,0.3-0.2,0.5-0.1c0.2,0,0.3,0.2,0.3,0.4c0,0,0,0,0,0c0,0,0,0,0,0c0,0,0,0,0,0c0,0,0,0,0,0
			c0,0,0,0.1,0,0.1c0,0,0,0,0,0c0,0,0,0,0,0.1c0,0,0,0,0,0c0,0,0,0,0,0.1c0,0,0,0,0,0c0,0,0,0.1,0,0.2c0,0,0,0,0,0c0,0,0,0.1,0,0.1
			c0,0,0,0,0,0.1c0,0,0,0.1,0,0.1c0,0,0,0,0,0.1c0,0.1,0,0.1,0,0.2c0,0,0,0,0,0.1c0,0,0,0.1,0,0.1c0,0,0,0,0,0.1c0,0,0,0.1,0,0.1
			c0,0,0,0.1,0,0.1c0,0,0,0.1,0,0.1l0,0c0.4,0.4,0.9,0.8,1.3,1.3c0.6,0.8,1.4,1.7,2.1,2.9c0.3,0.6,0.6,1.1,0.9,1.7
			c0.3,0.5,0.5,1,0.8,1.5c0.2,0.3,0.4,0.7,0.6,1l0,0c0,0.1,0.1,0.1,0.1,0.2c0,0,0.1,0.1,0.1,0.1v0c0.2,0.3,0.3,0.5,0.5,0.7
			c0.5-2.1,0.4-6.9,0.4-8.4c0,0,0,0,0,0c0,0,0,0,0,0c0-0.1,0-0.1,0-0.2h0c0-0.1,0-0.1,0-0.2c0.1-0.9,0.5-1.8,1.3-2.4
			c1.1-1,2.7-1.5,4.5-1.5c1.9,0.1,4.2,0.9,6.1,1c1.5,0,2.2-0.4,2.5-0.5c0.1,0,0.5,1.3-0.8,3.2c-0.2,0.3-0.5,0.6-0.8,0.8
			c0,0,0.1,0.1,0.1,0.1c0.1,0.1,0.1,0.3,0.1,0.4c0,0.3-0.2,0.8-0.4,1.1c-1.1,1.9-2.3,5.1-2.4,5.6c0,0,0,0,0,0.1
			c0.2-0.1,0.4-0.2,0.6-0.3c1.2-0.7,2.3-1.2,3.3-1.6c-0.8-1.4-0.8-2.9-0.6-4.3c0,0,0-0.1,0-0.1c0-0.1,0-0.1,0-0.2l0,0
			c0-0.1,0-0.1,0-0.2c0.3-1,0.9-2,1.8-2.6c0.4-0.3,0.9-0.6,1.5-0.7c0.5-0.1,1.1-0.2,1.6-0.1c0.5,0,1,0.2,1.5,0.4
			c0.3,0.1,0.5,0.3,0.7,0.4l0,0c0.2,0.1,0.3,0.2,0.5,0.3c0.9,0.6,1.9,1.2,2.9,1.8c0-0.3,0.1-0.7,0.3-0.9c0.1-0.3,0.4-0.4,0.7-0.5
			c0.3,0,0.6,0.2,0.7,0.4c0.9,1.9,1.4,2.6,2.6,4.3l0.3,0.5C123.9,129.4,124,129.5,124,129.7z M83.1,128.9c-0.2,0-0.5,0-0.8-0.1
			c0,0-0.1,0-0.1,0c-0.1,0-0.2,0-0.3,0c0,0-0.1,0-0.1,0c-0.1,0-0.2,0-0.3,0c0,0-0.1,0-0.1,0c-0.4-0.1-0.8-0.1-1.2-0.2
			c-0.1,0-0.3-0.1-0.4-0.1c0,0,0,0,0,0c-1.1-0.2-2.8-0.5-2.8-0.5l0,0h0c-0.2,0.1-0.5,0.1-0.7,0.2c-1.4,0.4-2.3-1.6-2.3-1.6l-0.1-0.3
			l-0.1,0.3c0,0-0.2,0.9,0.2,1.6c0.2,0.3,0.6,0.5,1,0.7c-0.5,0.1-1.3,0.1-1.8-0.6l-0.1-0.2l0,0.3c0,0-0.2,1.2,1.1,1.5
			c0.1,0,0.2,0,0.2,0c0.4,0,0.9-0.2,1.5-0.5c0.8-0.3,1.7-0.8,2.8-0.8l0.2,0c-0.4,0.1-0.6,0.2-0.7,0.2c0,0,0.3,1.2,0.9,1
			c0.3-0.1,1.2-0.3,2.3-0.6c0.3-0.1,0.5-0.1,0.8-0.2c0,0,0.1,0,0.1,0c0.1,0,0.2-0.1,0.3-0.1c0,0,0.1,0,0.1,0
			C82.8,128.9,83,128.9,83.1,128.9z M111.7,131.2c-1.3,0.4-2.9,1-5,2.1c-0.6,0.3-1.2,0.7-1.7,1c-0.1,0.1-0.3,0.2-0.4,0.2
			c-0.3,0.2-0.9,0.5-1.4,0.8c0,0,0,0,0,0c0,0,0,0,0,0c-0.5,0.2-0.9,0.5-1.1,0.6c-0.5,0.2-1,0.3-1.5,0.4c-1.4,0.3-3,1-3,1
			s1-1.2,2.7-1.8c0.2-0.1,0.4-0.1,0.7-0.2l0,0c2.2-0.6,3.3-2.5,3.5-2.9h0c0.6-1.1,1-2.4,1.4-3.4c0.1-0.3,0.2-0.6,0.4-0.9l-2.8-0.2
			c1.9,0.1,3.1-0.5,3.8-2l-5.7-0.3c4.3,0.3,6.2-1,6.8-2.7l0.1-0.4c-1.3,0.6-5-0.7-7.1-0.8c-2.9,0-4.8,1.3-4.9,2.8c0,0.1,0,0.2,0,0.3
			c0,2,0.4,6.9-0.9,10.7c-0.1,0.4-0.3,0.7-0.4,1c0,0,0,0,0,0l0,0c-0.7,1.3-1.6,1.7-2,1.9c0,0,0.5-0.7,0.9-1.8v0
			c0.2-0.5,0.3-0.9,0.5-1.4c-0.1-0.1-0.2-0.2-0.3-0.3v0c-0.2-0.2-0.4-0.4-0.6-0.7c-0.1-0.2-0.3-0.4-0.4-0.6l0,0
			c-0.3-0.4-0.5-0.9-0.8-1.3c-0.6-1-1.1-2.1-1.7-3.2c-0.6-1.1-1.2-2.1-2-2.9c-0.3-0.4-0.7-0.8-1.1-1.1c-1,0.7-2.1,0.3-2.1,0.3
			s0.7-0.2,1.3-0.6l0,0c0,0,0.1-0.1,0.1-0.1l0,0v0c0.1-0.1,0.2-0.1,0.2-0.2c0,0,0,0,0,0c0,0,0,0,0,0c0,0,0.1-0.1,0.1-0.1
			c0,0,0.1-0.1,0.1-0.1c0-0.1,0.1-0.1,0.1-0.2c0,0,0-0.1,0-0.1c0,0,0-0.1,0.1-0.1c0-0.1,0.1-0.1,0.1-0.2c0,0,0-0.1,0.1-0.1
			c0-0.1,0-0.1,0-0.2c-0.1,0-0.1,0-0.2,0c0,0,0,0-0.1,0c-0.1,0-0.1,0-0.2,0c0,0,0,0-0.1,0c0,0-0.1,0-0.1,0c0,0-0.1,0-0.1,0
			c0,0-0.1,0-0.1,0c-0.1,0-0.1,0-0.2,0c0,0,0,0,0,0c-0.1,0-0.3-0.1-0.4-0.1c0,0,0,0,0,0l0,0c-0.1,0-0.1-0.1-0.2-0.1l-2.8,1.4
			c0.1-0.3,0.5-0.7,1-1.1c-1.6-0.1-3.1,0.1-3.1,0.1c-0.6,0.5-1,1.4-1,1.4c-1.8-0.1-2.8-0.6-2.8-0.6c-0.1,0.2-0.1,0.3-0.2,0.5l0,0
			c-0.2,1-0.1,1.8,0.6,2c0.2,0.1,0.4,0.1,0.8,0.2c2.1,0.5,5.2,0.9,5.8,0.7c1.9-0.4,2.6-2.1,2.6-2.1s-0.1,1.7-1.4,2.5
			c0.1,0.7,0.1,1.4,0.1,2.3c0.1,1.1,0.2,2.4,0.5,3.8c0.1,0.4,0.2,0.7,0.3,1.1c0.1,0.4,0.2,0.8,0.4,1.2c0.1,0.4,0.3,0.8,0.5,1.2
			c0.2,0.4,0.4,0.8,0.7,1.3c0.3,0.4,0.6,0.8,0.9,1.3c0.3,0.4,0.7,0.8,1.1,1.2c0.8,0.8,1.9,1.4,2.9,1.8c0.5,0.2,0.9,0.3,1.4,0.5
			l-2.3,2.6l-1.9-0.5c-0.1-0.1-0.2-0.3-0.4-0.3c-0.1,0-0.2,0-0.3,0.1c-0.4-0.1-0.9,0-1.2,0.4c-0.2,0.2-0.4,0.5-0.4,0.8
			c0.3-0.3,0.8-0.4,1.2-0.3c0.1,0.2,0.3,0.4,0.5,0.4c0.1,0,0.3,0,0.4-0.1l0.6,0.1l-1.3,0.2c-0.1-0.1-0.2-0.1-0.3-0.1
			c-0.2,0-0.5,0.2-0.5,0.4c-0.4,0.2-0.7,0.6-0.7,1c0,0.3,0,0.6,0.2,0.9c0.1-0.5,0.4-0.9,0.8-1c0.1,0.2,0.3,0.3,0.5,0.3
			c0.4,0,0.7-0.2,0.7-0.6l1.1-0.2l-0.1,0.1c-0.2,0-0.4,0.2-0.4,0.4c0,0.2,0.1,0.3,0.2,0.4c0,0.4,0.1,0.8,0.4,1.1
			c0.2,0.2,0.5,0.4,0.8,0.4c-0.3-0.4-0.4-0.9-0.3-1.4c0,0,0.1,0,0.1,0c0.4,0,0.7-0.3,0.7-0.6c0-0.1,0-0.3-0.1-0.4l0.1-0.3l1.8,0.2
			c0.1,0.2,0.3,0.4,0.5,0.4c0.3,0,0.6-0.2,0.6-0.5c0.4,0,0.8,0.3,1.1,0.6c0-0.3,0-0.6-0.2-0.9c-0.2-0.3-0.5-0.5-0.8-0.6
			c-0.1-0.2-0.2-0.3-0.4-0.3c-0.2,0-0.4,0.1-0.5,0.3l-1.1-0.1c0,0,2.9-2.6,3-2.8l0.1,0l0.1,0l0.2,0c-1.1-2.3-1.1-3.5-1-4.4
			c0-0.2,0.1-0.4,0.1-0.5c0.8-1.9,2.9-1.4,2.9-1.4s-1.9,0.2-2.3,1.7c0,0.1-0.1,0.3-0.1,0.4c-0.2,0.9-0.1,2.4,1.8,5.7
			c0,0,0.1,0.2,0.1,0.2l-1.5,3.7l-2.3-0.5c-0.1-0.2-0.3-0.3-0.5-0.3c-0.1,0-0.3,0-0.4,0.1c-0.5-0.1-1.1,0.1-1.4,0.4
			c-0.3,0.3-0.4,0.6-0.5,1c0.4-0.4,1-0.5,1.5-0.4c0.1,0.3,0.3,0.5,0.6,0.5c0.2,0,0.3,0,0.4-0.1l0.7,0.2l-1.5,0.3
			c-0.1-0.1-0.2-0.1-0.3-0.1c-0.3,0-0.5,0.2-0.6,0.5c-0.5,0.2-0.8,0.7-0.9,1.3c-0.1,0.4,0,0.8,0.2,1.1c0.1-0.6,0.5-1,1-1.3
			c0.1,0.2,0.4,0.3,0.6,0.4c0.4,0,0.8-0.3,0.9-0.7l1.3-0.3l-0.1,0.2c-0.3,0-0.5,0.3-0.5,0.5c0,0.2,0.1,0.4,0.2,0.5
			c-0.1,0.5,0.1,1,0.5,1.4c0.3,0.3,0.6,0.4,1,0.5c-0.4-0.5-0.5-1.1-0.3-1.7c0,0,0.1,0,0.1,0c0.5,0,0.9-0.3,0.9-0.8
			c0-0.2,0-0.3-0.1-0.5l0.2-0.3l2.2,0.2c0.1,0.3,0.4,0.5,0.7,0.5c0.4,0,0.7-0.3,0.8-0.6c0.5,0,1,0.3,1.3,0.7c0-0.4,0-0.7-0.2-1.1
			c-0.2-0.4-0.6-0.6-1-0.7c-0.1-0.2-0.3-0.3-0.5-0.4c-0.2,0-0.5,0.1-0.6,0.3l-1.4-0.1c0,0,2.1-3.7,2.1-4c0.5,0.2,1,0.2,1.5,0.1
			c0.6-0.1,1.1-0.5,1.4-0.9c-0.2,0-0.3,0-0.5,0c-1,0-1.9-0.7-2.3-1.5c0.2-0.1,0.5-0.1,0.7-0.2c1-0.3,1.9-0.7,2.8-1.1
			c0.8-0.5,1.6-1,2.3-1.5c0.3-0.3,0.7-0.5,1-0.8c0.3-0.3,0.6-0.5,0.9-0.8c1-0.9,1.8-1.7,2.6-2.5c0.4-0.4,0.7-0.8,1-1.1
			c0.8-0.9,1.6-1.7,2.4-2c0.3-0.1,0.4-0.1,0.7-0.1c0.7,0.1,1.2,0.8,1,1.5c0,0.2-0.1,0.3-0.2,0.4c-0.1,0.1-0.2,0.3-0.3,0.4
			c0,0,0,0-0.1,0c-0.3,0.2-0.6,0.3-1,0.2c-0.6-0.1-1-0.6-1-1.2c-0.3,0.4-1.1,1.5-1.5,2.2c0.1,0.2,0.2,0.4,0.4,0.5
			c0.6,0.7,1.4,1.1,2.2,1.2c0.4,0.1,0.8,0.1,1.2,0c0.3,0,0.4-0.1,0.6-0.1c0.2-0.1,0.4-0.1,0.6-0.2c0.4-0.2,0.7-0.4,1-0.7
			c0.3-0.3,0.5-0.6,0.7-0.9c0.4-0.7,0.5-1.4,0.6-2.1c0-0.2,0-0.4,0-0.5c0-0.1,0-0.2,0-0.3l0-0.1l0-0.1c0-0.1,0-0.1,0-0.2
			c0-0.1-0.1-0.2-0.1-0.3c0-0.1-0.1-0.2-0.1-0.3c0-0.1-0.1-0.2-0.1-0.3c-0.4-0.7-0.9-1.1-1.4-1.4c-0.3-0.2-0.5-0.3-0.8-0.4
			c-0.2-0.1-0.5-0.2-0.7-0.3c-0.6-0.2-1.2-0.2-1.7-0.2C113.8,130.7,112.6,130.9,111.7,131.2z M97.5,146.2c-0.1-0.1-0.1-0.2-0.2-0.3
			c-0.1,0.1-0.2,0.2-0.3,0.2l-0.4,0.3c0.2,0.1,0.4,0.3,0.6,0.4L97.5,146.2z M123.2,129.7c-1.4-2-2-2.7-3-4.9
			c-0.2,0.5-0.3,1.3-0.1,2.1c-1.5-0.9-2.9-1.8-4.3-2.7c-0.2-0.1-0.3-0.2-0.5-0.3c-0.2-0.1-0.4-0.2-0.5-0.3c-0.4-0.2-0.8-0.3-1.2-0.3
			c-0.4,0-0.9,0-1.3,0.1c-0.4,0.1-0.8,0.3-1.2,0.6c-0.7,0.5-1.2,1.3-1.4,2.1c-0.2,0.8-0.1,1.8,0.2,2.5c0.1,0.2,0.2,0.4,0.3,0.6
			c0.1,0.1,0.1,0.2,0.2,0.3c0,0,0.1,0.1,0.1,0.1l0,0.1l0,0.1l0.1,0.1c0,0,0,0,0,0l0,0l0,0c0,0.1,0.1,0.1,0.1,0.2l0.1,0.2l0,0.1
			c0.5-0.1,1.2-0.3,1.9-0.4c-0.1-0.2-0.2-0.3-0.3-0.5l-0.2-0.2l-0.2-0.2c-0.1-0.1-0.1-0.1-0.2-0.2l0-0.1l0,0c0,0,0,0,0,0l-0.1-0.1
			l0,0l0,0c0,0,0,0-0.1-0.1c0-0.1-0.1-0.1-0.1-0.2c-0.1-0.1-0.1-0.2-0.2-0.3c-0.3-0.5-0.4-1-0.3-1.6c0.1-0.5,0.4-1.1,0.8-1.5
			c0.4-0.4,1-0.6,1.6-0.6c0.3,0,0.6,0.1,0.9,0.2c0.2,0.1,0.3,0.1,0.4,0.2c0,0,0.1,0,0.1,0.1l0.1,0.1l0.2,0.2
			c1.4,0.9,2.9,1.8,4.4,2.6c-0.7,0.2-1.3,0.7-1.6,1.2C119.6,128.6,121.1,129,123.2,129.7z M95.1,134.1l0.2-2.2c0,0,0-0.1,0-0.2
			c-0.5-1.6-1-2.9-1.2-3.8c0-0.1,0-0.2-0.1-0.3c-0.2-0.9,0.3-2.1,1.6-3l0.7-1.6c-1.2,0.6-2.2,1.4-2.8,2.4c-0.6,0.9-0.7,1.8-0.5,2.7
			c0,0.1,0,0.1,0,0.2l0,0c0,0,0,0.1,0.1,0.2c0,0,0,0,0,0c0,0,0,0,0,0c0.3,1.1,1.3,4.2,1.8,6.4L95.1,134.1z M106.7,53.2
			c0-1.8-0.3-3.5-0.8-5.1l3.2,0.2c0.8,1.4,1.2,2.9,1.2,4.5c0,3.6-2.2,6.8-5.5,8.6C106.1,59.3,106.8,56.3,106.7,53.2z M107.8,49.7
			c0.2,1.1,0.3,2.3,0.4,3.5c0,1.1-0.1,2.1-0.2,3.2c0.6-1.1,0.9-2.3,0.9-3.5c0-1.1-0.2-2.1-0.7-3.1L107.8,49.7z M92.1,61.5
			c-3.3-1.8-5.6-5-5.6-8.6c0-1.6,0.4-3.1,1.2-4.5l3.2-0.2c-0.5,1.5-0.8,3.3-0.8,5.1C90.1,56.3,90.8,59.3,92.1,61.5z M88.7,53.2
			c0-1.2,0.1-2.3,0.4-3.5l-0.4,0c-0.4,1-0.7,2-0.7,3.1c0,1.3,0.3,2.5,0.9,3.6C88.7,55.4,88.6,54.3,88.7,53.2z M91.7,48.1l6.3-0.5
			v15.5c-1.7,0-3.2-0.4-4.7-1c-1.6-2-2.6-5.4-2.5-8.9C90.9,51.4,91.2,49.6,91.7,48.1z M92.3,53.2c-0.1,3,0.7,5.9,2,7.7
			c0.7,0.3,1.5,0.5,2.3,0.6V49.2l-3.8,0.3C92.5,50.6,92.3,51.9,92.3,53.2z M103.5,62.1c-1.4,0.6-3,0.9-4.7,1V47.6l6.3,0.5
			c0.5,1.5,0.9,3.3,0.9,5.2C106.1,56.7,105.1,60.1,103.5,62.1z M102.6,60.9c1.3-1.8,2-4.7,2-7.6c0-1.3-0.2-2.6-0.5-3.8l-3.8-0.3
			v12.3C101,61.4,101.8,61.2,102.6,60.9z M98.5,79.4c1.4,0,2.5-1.1,2.5-2.5s-1.1-2.5-2.5-2.5c-1.4,0-2.5,1.1-2.5,2.5
			S97.2,79.4,98.5,79.4z M132.9,68c0,0-2.1-10.9-12-11.4c-0.6,0-3.9-0.1-4.5,0.4c0,0,12-1.2,14.6,10.6c-0.1-0.5-1.7-0.2-3.1-1.2
			c0,0,0,0,0,0c-0.1-0.1-0.1-0.1-0.2-0.2c-0.3-0.2-0.4-0.5-0.6-0.7l0-0.1c-0.3,0.4,0,1.1,0.5,1.7c0.3,0.4,0.9,1,1.1,1.7c0,0,0,0,0,0
			c0.1,0.5,0.1,0.9,0,1.5c-0.3,1-1.2,2.1-1.6,3.1h1.8c0.2-0.3,0.4-0.7,0.5-1c0.4-0.6,0.7-1.3,0.9-2c0,0,0,0,0-0.1
			c0.1-0.5,0.2-0.9,0.2-1.3c1.1,0.5,2.6,0.9,4.6,0.9c0,0,0.1,0,0.1,0c1,0,2.2-0.3,3.3-0.9c0.2-0.1,0.4-0.2,0.6-0.3
			c0.3-0.2,0.6-0.4,0.9-0.7c1.6,1.6,3.6,2.5,6,2.5c1.6,0,3.4-0.4,4.7-1.2c0.7-0.4,1-1.1,0.9-1.9c-0.1-0.7-0.7-1.3-1.4-1.5
			c-0.4-0.1-0.6-1-0.9-2.2c-0.4-1.9-1-4.6-3.5-6.1c-0.2-0.1-0.4-0.2-0.6-0.4c-0.4-0.3-1.5-0.8-2-1.3c0.2,0,0.3,0,0.5,0
			c3.9,0.7,8.1,4.3,9.6,8.2c0.8,2,1.3,4.9-0.8,7.7c-0.6,0.8-3.7,3.3-5,3.4c-0.4-0.5-1.1-0.7-1.7-0.6c-0.7,0.1-1.3,0.7-1.4,1.4
			c-0.4,1.9-0.1,3.5,0.8,4.7c0.3,0.4,0.7,0.7,1.1,1c-0.4,0.1-0.8,0.2-1.2,0.2c-0.7,0-1.3-0.1-1.8-0.4c-0.8-0.4-1.9-1.7-2.1-2.3
			c0.9-0.5,1.2-1.6,0.7-2.5c-0.5-0.9-1.6-1.2-2.5-0.7l0,0c0,0,0,0,0,0c-0.3,0.2-0.6,0.4-0.9,0.6V80c0.4-0.7,1-1.4,1.8-1.8
			c-2.5,1.4,0.6,4.8,2.1,5.5c1.9,0.9,4.4,0.6,6.2-0.5c1.4-0.8,1.8-2.1,1.9-2.1c0,0,0,0,0,0l0,0c0,0,0,0-0.1,0c-0.2,0-0.5,0-0.7,0.1
			c-1.5,0.1-4.4-0.3-3.6-4.2c1.5,2.2,6.9-2.3,7.9-3.6c5.4-7.4-2.5-17.4-10-18.8c-1.4-0.3-3.4,0.1-2.8,1.9c0.4,1.3,2.7,2.4,3.7,3
			c3.7,2.2,1.8,8,5,8.6c-2.2,1.3-7.6,2.2-9.9-3.4c-0.1-0.4-0.3-0.8-0.4-1.1c-2.2-4.7-7.3-6.5-9.3-7.2l-0.2-0.1
			c1.9,1.7,6.9,3.5,8.7,9c0.2,0.4,0.5,1.2,0.5,1.2C138.4,68.6,134.1,69,132.9,68z M118.5,68.7c-0.1-0.9-0.4-1.8-0.9-2.7c0,0,0,0,0,0
			l0,0c2.6,0,5.5,2.7,4.1,5.1c-0.1,0.2-0.2,0.4-0.3,0.5c-0.2,0.2-0.3,0.5-0.5,0.7C120.3,70.7,119.5,69.5,118.5,68.7z M189.8,92
			C189.8,92,189.8,92,189.8,92c-0.2,3.7-1.7,7.2-4.2,9.9c-2.3,2.6-5.3,4.4-8.4,5c-0.9,0.2-1.7,0.3-2.5,0.3c0.2,0.2,0.4,0.5,0.6,0.8
			c3,4.3,3.4,9.9,0.8,14c-1.6,2.6-4.9,5.2-8.6,5.3c-0.2,0.2-0.4,0.3-0.5,0.5c0.1,0,0.2,0.1,0.2,0.1c1.5,0.7,2.7,2.2,3.4,3.9
			c1.1,0,2,0.5,2.6,1.4c1.3,2,0.4,5.2,0,6c-1.7,3.9-5.2,6.6-7.8,8.1c-0.2,0.1-0.4,0.2-0.6,0.3c0.7,1.1,1.3,2.3,1.8,3.5
			c0.8,2.1,0.5,4.3,0.2,6.1c-0.1,0.9-0.3,1.7-0.2,2.3c0.1,0.8-0.3,1.5-1,1.8c-0.7,0.3-1.5,0.2-2-0.3c-0.2-0.2-0.5-0.4-0.7-0.6
			c-0.2,0.8-0.5,1.7-1.2,2.5c0,0,0,0,0,0c-0.6,0.7-1.4,1.3-2.1,1.9c-0.7,0.5-1.7,1.4-1.9,1.8c-0.3,0.8-1.1,1.3-2,1.2
			c-0.1,0-0.3-0.1-0.4-0.1c-1.3,1.4-2.8,2.4-4.3,2.7c-0.3,0.1-0.6,0.1-0.9,0.1c-0.7,0-1.4-0.2-1.9-0.3c-0.3-0.1-0.6-0.2-0.7-0.2
			c0,0,0,0,0,0l0,0c-0.1,0-0.2,0-0.3,0c-0.9-0.1-1.7-0.9-1.7-1.8c0-0.2,0-0.4,0.1-0.5c-0.1,0-0.2,0-0.3,0c-1.1,0-2.2-0.4-3.1-1.1
			c-0.9-0.7-1.6-1.8-2.3-3c-0.3-0.5-0.8-1.4-1.2-1.8c-0.7,0.3-1.4,0.1-2-0.4l-0.1-0.1c-0.4-0.5-0.6-1.1-0.5-1.7
			c0-0.1,0.1-0.2,0.1-0.3c0-0.1,0-0.1,0.1-0.2c0,0,0,0,0,0c0.2-0.6,0.6-0.9,0.9-1c0.7-0.4,1.3-0.5,2-0.5c1.1,0,1.9,0.5,2.6,1
			c0.3,0.2,0.6,0.4,0.9,0.5c0.8,0.4,1.6,0.6,2.4,0.6c2.9,0,6.2-3.4,6.3-7.9c-0.1-1.2-0.2-2.7-4.3-5.5c-0.1-0.1-0.2-0.2-0.3-0.2
			c-0.6-0.5-1.2-1-1.7-1.5c0,0,0,0,0,0c-5.2-5.4-7.5-13.6-5.6-20c0-0.1,0.1-0.2,0.1-0.3c-0.2-0.3-0.5-0.5-0.7-0.8
			c0,0-0.1-0.1-0.1-0.1v-4.5c0.9,1.6,1.9,3.2,3.1,4.6c0,0,0,0,0,0c-0.3,0.7-0.5,1.3-0.7,2c-1.6,5.4,0.2,13.1,5.2,18.3
			c0.6,0.6,1.2,1.1,1.8,1.5l0,0c4.5,3.2,5,5.1,5.1,7c-0.1,5.7-5.2,12-11.3,8.9c-1.6-0.8-3.1-2.4-3.9-0.5c1.8-1.7,3.5,3.7,5.3,5.1
			c3.3,2.7,4.2-0.3,6.6-0.6c0.7,1.7-0.9,3.5-2.6,3.7c1.1-0.1,2.1,0.7,3.3,0.4c2.7-0.6,6.4-5,4.9-7.8c0,0,0,0,0,0
			c1.6,1.3,0.4,4.5,0.5,5.1c0.5-1.5,3.1-2.8,4.3-4.2c0.9-1.1,0.9-2.4,0.8-3.5c-0.8-1.3-0.9-2.8-0.2-3.3l0,0.1c0,0.4,0.1,0.8,0.3,1.2
			c0.1,0.1,0.1,0.2,0.2,0.3c0,0,0,0,0,0.1c0.3,0.6,0.9,1.1,1.7,1.7c0.6,0.5,1.3,1,1.8,1.5c-0.2-2.1,1.2-5.3,0.2-7.9
			c-0.7-1.8-1.7-3.4-3-4.9c0.9-0.3,1.8-0.7,2.5-1.1c2.9-1.7,5.7-4.2,7.1-7.3c0.4-1.1,1.2-4.9-1.1-4.8c-0.6,0-1.1,0.9-1.1,1.3
			c0.1-2-1.2-4.5-3-5.4c-1.7-0.8-4.1-0.2-4.6,1.8c0.5-1.4,2.8-0.4,3.6,0.3c0.9,0.9,1.2,2.4,0.9,3.6c-0.3,1.2-0.9,1.4-0.8,1.4
			c-0.2-0.7-0.3-1.6-1-2c-0.4-0.2-0.8-0.3-1.3-0.2c-0.6,0.1-0.8,0.5-0.9,0.5c1.7,0.3,0.1,4.4-0.5,5.1c-3.2,4.5-10.5,1.9-12.7-2.1
			c-0.4-0.8-0.6-2,0.6-2c0.8,0,1.9,1,2.5,1.5c2,1.7,4.9-0.5,5.9,1.2c0.3-1.5-0.2-4.5-3.9-4.9c-1.6-0.2-4.6-1-6.6-3.9l-0.1-0.1
			c1.9,1,5.4,3.5,7.8,3c0,0,0.2-0.1,0.3-0.5c0.3-1.1-0.8-1.4-1.7-1.6c-2.1-0.4-4.5-1.3-7.8-3.2c-1.3-0.7-1.9-1.5-1.7-2.7
			c0.4,0.3,0.8,0.7,1.2,1c1.3,0.9,2.7,1.7,4.1,2.3c1.5,0.5,2.9,1,4.5,1.2c1,0.1,2.1,0.2,3.1,0.2c0.6,0,1.2,0,1.9-0.1h0h0v0
			c0,0,0.1,0,0.1,0c2.8-0.4,5.8-1.8,7.9-3.9c0.2,0,0.3,0,0.5,0c2.9,0,5.8-2.1,7.2-4.4c2.3-3.6,1.7-8.5-0.8-11.9
			c-0.2-0.3-0.5-0.7-0.8-1c-2.6-2.9-6.6-4.2-10.4-3.9c-1.3,1.1-2.9,0.9-3.5,0.7c-2,0.7-3.8,1.8-5.2,3.4c0.6-0.4,1.5-0.7,2.3-0.9
			c0.5-0.1,0.9-0.2,1.4-0.3c0,0,0,0,0,0l0,0c0.6-0.1,1.2-0.1,1.8-0.1c4.5,0.1,11.3,3.5,8.9,9c0.4-0.9,2.6-1.4,3.2-2.6
			c0.7-1.4-0.1-3.4-1.2-4.4c1.7,1.8,2.3,3.7,2.1,6c-0.2,2.5-1.7,5.4-4.2,6.3c-1.4,0.5-3.7,0.2-4.8-0.9c-0.4-0.5-1.6-3.3-0.3-3.3
			c-3.1,0.1-3.4,3.6-2,5.6c1.2,1.7,3.4,2.6,5.4,2.8c-1.5,0.8-4.1,1.5-5.3,1.5c-3.4,0.1-3.6-2.9-4-5.4c-0.3-2.2-1.3-1.3-3.2-1.9
			c-0.6-0.2-1-1.4-0.9-2.1c-0.7,1-0.9,2.7-0.9,4.2c-0.1,2.6,1.3,4.2,2.3,4.9l-0.1-0.1c-4.2-0.6-3.3-7-2.4-9.6c0.3-0.8,0.4-1.3,0.1-2
			c-0.8-1.5-0.7-1,0.3-2.3c0.7-0.9,1.1-2.1-0.2-2.7c-0.4-0.2-0.6-0.2-1-0.1c-0.1,0.2-0.5,0.7-0.7,0.9c-2.3,2.6-1.9,5.9-2,8.3l0-0.2
			c-0.3-1.4-1.2-4.9,0.8-8c0.2-0.2,0.3-0.5,0.5-0.7c2.5-3.5-0.2-7.1-1.8-7.9c0.9,2-3.4,4.1-3.3,7c0,0.9,0.3,2.6-0.4,3.3
			c-0.9,1.1-1.9,0.1-2.3-0.8c-2.1-4.8,0.9-13.2,7.6-13.1c1.2,0,6.2,1.3,5.3,3.1c0.1-0.1,0.8-0.2,1.2-0.5c0.4-0.4,0.7-0.8,0.8-1.3
			c0.2-1-0.6-1.7-1.1-2.3c0,0.1,1-0.2,2,0.2c1.4,0.5,2.5,1.6,2.7,3.3c0.1,1-0.4,3.1-1.6,3.5c0.1,0,0.2,0,0.3,0c0,0,0,0,0,0
			c0.1,0,0.2,0,0.3,0c0,0,0,0,0,0c0.3,0,0.6-0.1,0.9-0.2c0.3-0.1,0.5-0.2,0.8-0.4c0.5-0.3,0.9-0.7,1.2-1.2c0.2-0.2,0.3-0.5,0.4-0.8
			c0.1-0.3,0.2-0.5,0.2-0.8c0.1-0.3,0.1-0.6,0.1-0.9c0-0.3,0-0.6-0.1-0.9c-0.1-0.6-0.3-1.1-0.6-1.6c-0.4-0.8-0.9-1.5-1.6-2.1
			c-0.8-0.6-1.7-1-2.8-2.1c1,0.6,1.8,0.9,2.4,1l0,0l0,0l0,0c0,0,0,0,0,0c0,0,0,0,0,0c0.6,0.2,1,0.2,1,0.2c0,0,0,0,0,0
			c0,0,0.1,0,0.1,0c0,0,0,0,0,0c0,0,0,0,0.1,0c0,0,0.1,0,0.1,0c0,0,0,0,0,0c0.2-0.1,0.3-0.2,0.4-0.3c0.2-0.3,0.3-0.6,0.2-0.8
			c-0.1-0.3-0.3-0.6-0.5-0.8c-0.5-0.5-1.2-0.9-1.9-1.2c-0.4-0.2-0.7-0.3-1.1-0.4c-0.2-0.1-0.4-0.1-0.5-0.1l-0.6-0.1
			c-0.2,0-0.4-0.1-0.5-0.1c0,0-0.1,0-0.1,0c-0.2,0-0.3,0-0.5,0c0,0-0.1,0-0.1,0c-0.2,0-0.3,0-0.5,0c-0.1,0-0.2,0-0.3,0
			c-0.1,0-0.1,0-0.2,0c-0.4,0-0.7,0-1.1,0c0,0,0,0,0,0c-0.5,0-1,0.1-1.5,0.1c-1.3,0.2-2.6,0.5-3.8,0.8h0c-0.3,0.1-0.5,0.2-0.8,0.3
			c-1.5,0.5-3,1.1-4.3,2c-1.3,0.8-2.5,1.9-3.6,3c-0.7,0.8-1.4,1.7-2,2.7v-4.4c2-2.2,4.5-4,7.1-5c0.2-0.1,0.3-0.1,0.5-0.2
			c-3,0-5.8-1.1-7.6-2.8v-2.7c0.3,0.6,0.7,1.2,1.1,1.6c2.4,2.4,7,3.1,10.1,1.9c-0.7,0.3-1.8,1.4-1.5,2.4c0,0.1,0.1,0.3,0.1,0.4
			c2.4-0.7,4.8-1.1,7.3-1c0,0,0.1-0.1,0.1-0.1c0.1-0.1,0.3-0.2,0.4-0.4c0.1-0.2,0.3-0.3,0.5-0.5c0.3-0.4,0.8-0.8,1.1-1.3
			c0.2-0.3,0.4-0.5,0.6-0.8c0.1-0.1,0.2-0.3,0.3-0.4c0.1-0.2,0.2-0.3,0.3-0.5c0.4-0.7,0.9-1.4,1.3-2.2c0.9-1.6,1.6-3.6,2.2-5.7
			c0.3-1,0.6-2.3,0.8-3.4c0.1-0.6,0.2-1.2,0.2-1.8c0-0.6,0.1-1.2,0.1-1.9c0-2.5-0.4-5.2-1.4-7.8c-0.9-2.6-2.2-5.2-4-7.5
			c-1.8-2.3-4-4.4-6.4-5.9c-0.6-0.4-1.3-0.8-2-1.1c-0.6-0.3-1.3-0.6-2-0.9c-0.7-0.3-1.4-0.5-2.1-0.8c-0.7-0.2-1.4-0.4-2.1-0.6
			c-2.9-0.7-5.8-1.1-8.6-1.1c-2.8,0-5.6,0.3-8.1,0.9c-2.5,0.6-4.9,1.5-6.8,2.5c-2,1.1-3.6,2.4-5,3.6c-1.1,1-2,1.9-2.8,2.8
			c0.2-0.8,0.2-1.5,0.2-2.3c0-0.4,0-0.7-0.1-1.1c1.5-1.5,3.1-2.9,4.9-4.2c1.1-0.8,2.3-1.4,3.6-2c1.9-0.9,3.8-2.7,4.7-3.6
			c0.2-0.2,0.3-0.3,0.4-0.4c0.1-0.1,0.1-0.1,0.2-0.2c1.9-1.6,4.4-2.8,6.4-3c0.2,0,0.5,0,0.9,0c0.2,0,0.5,0,0.8,0c0.4,0,0.7,0,1.2,0
			c3.5,0,4.5-0.4,4.8-0.6c0-0.9,0.7-1.7,1.7-1.8c1-0.1,1.9,0.7,2,1.7l0,0v0c0.1,0.7,0,1.5-0.2,2.1c0.4,0.1,0.7,0.3,1.1,0.3
			c0.2,0,0.5,0,0.8-0.1c0.2-0.2,0.3-0.4,0.4-0.6c0-0.2-0.1-0.4-0.1-0.5c-0.8-0.4-1.2-1.2-1-2l0-0.1c0.1-0.5,0.4-0.9,0.8-1.1
			c0.4-0.3,0.9-0.3,1.4-0.2l0,0c0.1,0,0.3,0.1,0.6,0.2c0.1,0,0.1,0.1,0.2,0.1c0.7,0.4,1.2,1,1.6,1.7c0.1-0.6,0.2-1.3,0.2-1.9
			c0-3.1-1.5-6.8-5.7-6.9l-0.1,0c-0.4,0-0.7,0-1.1,0.1c-0.3,0-0.7,0.1-1,0.1c-1.5,0-2.6-0.6-3.4-1.8c-0.3-0.4-0.4-0.9-0.3-1.4
			c0-0.1,0-0.2,0-0.3c0,0,0-0.1,0-0.2l0,0c0.1-0.6,0.6-1.2,1.2-1.4l0.1,0c0.7-0.2,1.5,0,2,0.6c0.6-0.2,1.5-0.8,2.2-1.2
			c1.3-0.8,2.5-1.5,3.7-1.7c0.4-0.1,0.7-0.1,1.1-0.1c1.1,0,2,0.3,2.8,0.8c0-0.3,0.1-0.6,0.3-0.9c0.6-0.8,1.7-1.1,2.5-0.5l0,0
			c0.1,0.1,0.5,0.2,0.8,0.2c0.7,0.1,1.8,0.4,2.7,1.1c1.2,1,2.2,2.8,2.7,4.7c0.2,0,0.3,0,0.5,0.1c0.8,0.3,1.3,1.1,1.2,2
			c-0.1,0.5,0.5,1.8,0.9,2.7c0.2,0.5,0.5,1.1,0.7,1.6c0,0,0,0,0,0c0,0.1,0.1,0.2,0.1,0.3c0,0,0,0,0,0c0,0.1,0.1,0.2,0.1,0.3
			c0,0,0,0,0,0.1c0,0.1,0.1,0.2,0.1,0.4c0,0,0,0,0,0.1c0,0.1,0,0.1,0,0.2l0,0c0,0.1,0,0.1,0,0.2l0,0c0,0,0,0,0,0
			c0,1-0.2,1.8-0.5,2.6c0,0-0.2,0.3-0.2,0.3c2.7-0.4,4.3,0.3,4.3,0.3c-1.3,2.3-1.5,3.7-2.1,5.6c0,0,0,0,0,0
			c-0.1,0.1-0.1,0.3-0.2,0.4c0,0,0,0,0,0c-0.5,1.3-1.3,2.6-2.4,3.6c-0.2,0.2-0.5,0.4-0.8,0.6c0.4,0.1,0.8,0.2,1.3,0.3
			c0.4,0.1,0.9,0.2,1.3,0.3c4.3,1.1,7.5,4.1,10.3,7.1c0,0.1,0.1,0.1,0.1,0.2c4,5.4,3.9,11.7,2,15.5c-0.2,0.3-0.4,0.7-0.6,1
			c1.5,0.5,3,1.1,4.4,2C186.5,77.7,190.1,85,189.8,92z M159.6,123.6c-0.1-0.1-0.1-0.2-0.2-0.3c0.3,1.4,0.7,1.7,1.5,1.7
			C160.5,124.6,160,124.1,159.6,123.6z M153.8,113.7c-0.1,0.1-0.1,0.2-0.2,0.2c0,0,0,0.1,0.1,0.1c0.4,0.7,0.5,1.3,0.4,1.8
			c0,0,0.1,0,0.1,0c0.6,0,1.1,0.5,1.1,1.1c0,0.4-0.2,0.7-0.5,0.9c0.3,0,0.9,0.1,0.9,0.1l0,0c0,0,0,0,0,0c0.7,0.1,2,0.2,2.7,1.5
			c0.1-0.6,0.2-1.3,0.5-1.8c0.8-1.5,2.2-2.4,4-2.4c1,0,1.8,0.8,1.9,1.8c0,0.5-0.2,1-0.5,1.3c0.1,0.3,0.1,0.6,0.4,0.9
			c0.2,0.2,0.6,0.4,1.1,0.5c0.2,0.1,0.5,0.1,0.8,0.1c0.3,0,0.7,0,0.9-0.1c1.2-0.4,2-1.6,2.5-2.8c-0.2,0.3-0.6,0.8-1.2,0.9
			c0,0,0,0,0,0c-0.2,0.1-0.4,0.1-0.6,0.1c-1,0-1.8-0.8-1.8-1.8c0-0.3,0.1-0.6,0.2-0.8c0.5-1.1,0.4-2.1-0.2-3c-1-1.6-4-3.3-7.1-3.3
			c-0.1,0-0.1,0-0.2,0c-0.9,0-3.1,0.1-4.3,1.4c0,0,0,0,0,0.1C155.1,111.3,154.7,112.6,153.8,113.7z M158.6,101.3
			c0-0.3-0.1-0.4-0.2-0.5c-0.2,0.6-0.5,1.1-0.9,1.5c-0.8,0.8-1.7,1.2-2.4,1.3c-0.2,0-0.3,0-0.5,0c-0.9-0.1-1.6-0.9-1.6-1.8
			c0-0.1,0-0.1,0-0.2c-0.8-0.5-2.8-1.1-3.5-1.1h-0.1c-2.5,0-4,1.5-4.9,2.8c-0.8,1.3-1.3,2.8-1.4,4.3c0.5-1.3,1.5-2.3,2.3-3.1
			c0.3-0.3,0.7-0.7,0.9-0.9c0,0,0,0,0,0c0.6-0.7,1.2-1.6,0.6-1.9c0.5-0.4,1.3-0.5,1.9-0.3c1.4,0.6,3.2,2.1,3.8,4.3
			c0.1,0.3,0.2,0.7,0.2,1.1c1.4-1.6,3.2-2.9,5.2-3.7c0.3-0.2,0.5-0.6,0.6-1.1c0,0,0-0.1,0-0.1C158.6,101.7,158.6,101.5,158.6,101.3z
			 M157.8,140.5C157.8,140.5,157.8,140.5,157.8,140.5c-0.2-0.8-1.4-0.7-1.8-0.7c-0.2,0-0.3,0-0.5,0.1c-0.4,0.1-1,0.1-1.5,0.1
			c0,0,0,0,0,0c0.9,0.4,1.9,0.6,2.8,0.6C157.1,140.6,157.5,140.5,157.8,140.5z M161.7,133C161.6,133,161.6,133,161.7,133
			c-1-0.1-1.8-0.9-1.8-1.8c0-0.1,0-0.2,0-0.3c-0.2,0.1-0.5,0.1-0.7,0.1c-0.7,0.1-1.4,0.2-2.1,0.2c0.1,0.4,0.1,0.9,0,1.3
			c0,0,0,0.1,0,0.1c0.7,0.4,1.1,0.9,1.5,1.3c1.3,1.6,1.4,3.7,1.1,5c-0.1,0.4-0.3,0.7-0.5,0.9c0.4-0.3,0.7-0.6,1-1
			c0.3-0.5,0.8-1.9,0.9-2.6c-0.5-0.4-0.8-1.1-0.7-1.8c0.1-0.7,0.6-1.2,1.2-1.4C161.5,133.1,161.6,133.1,161.7,133
			C161.6,133.1,161.6,133,161.7,133z M164.6,92.9c1-1.1,2.4-1.8,3.8-1.8c0.9,0,1.7,0.3,2.4,0.7c0.1,0.1,0.2,0.1,0.3,0.2
			c0.7,0.5,0.9,1.5,0.5,2.3c0.5-0.1,1,0,1.4,0.4c0.5,0.4,0.8,1.1,0.7,1.7c0.5,0.5,1.7,1.1,2.2,1.2c0.2,0,0.4,0.1,0.5,0.1
			c-0.1,0-0.1-0.1-0.2-0.1c-0.6-0.5-1.2-1.2-1.7-1.9c-1.3-1.9-4-6.4-1.8-9.1c0.4-0.5,0.8-1.1,1.2-1.6c-0.2-0.3-0.3-0.6-0.3-1
			c0-0.2,0-0.3,0.1-0.4c-0.1,0-0.2-0.1-0.3-0.1c-1.2-0.4-2.4-1.1-2.3-3.4l0-0.2c0.1-2.5-0.1-2.8-0.7-2.9c0.1,0.4,0.1,0.9,0.2,1.3
			c0,0.1,0,0.1,0,0.2c-0.1,6.4-4.8,11.2-9,11.2c-0.3,0-0.6,0-0.9-0.1C162.1,90.2,163.9,91.3,164.6,92.9z M180.2,76.3
			c-2.2-1.4-4.9-2.3-7.5-2.4c0,0,0,0-0.1,0c4.3-1.4,6.1-9.9,1.2-16.5c-2.7-2.9-5.6-5.5-9.4-6.5c-2-0.5-4.3-1-6.3-1.9
			c1.4-0.7,2.6-1.5,3.8-2.5c0.4-0.4,0.8-0.8,1.1-1.3l0,0c0.8-1.3,1.3-2.8,1.7-4.2c0-0.1,0-0.1,0.1-0.2c0-0.1,0-0.1,0.1-0.2
			c0-0.1,0.1-0.2,0.1-0.3c0,0,0-0.1,0-0.1c0-0.1,0.1-0.2,0.1-0.3c0,0,0,0,0-0.1c0-0.1,0.1-0.2,0.1-0.3c0,0,0,0,0-0.1
			c0-0.1,0.1-0.2,0.1-0.3c0,0,0,0,0-0.1c0.1-0.1,0.1-0.2,0.2-0.3c0,0,0,0,0,0c-0.6,0.2-1.2,0.3-1.8,0.4c-0.2,0-0.4,0.1-0.6,0.1
			c-0.4,0.1-0.7,0.1-1.1,0.2c-0.5,0.2-1,0.3-1.4,0.6c0,0-0.1,0-0.1,0c-0.1,0.1-0.2,0.1-0.3,0.2c-0.3,0.2-0.6,0.5-0.8,0.8
			c0,0-0.1,0.1-0.1,0.1l0,0.1c-0.2-0.4-0.1-1,0.3-1.6c0,0,0,0,0,0c0.1-0.1,0.1-0.2,0.2-0.3c0.1-0.1,0.2-0.2,0.3-0.3
			c0.9-1.1,2.2-2.5,2.1-4.3c0-0.1,0-0.1,0-0.2c0-0.1,0-0.2-0.1-0.2c0,0,0,0,0-0.1c0-0.1,0-0.1-0.1-0.2c0,0,0,0,0,0
			c0-0.1-0.1-0.2-0.1-0.3c0,0,0,0,0-0.1c0-0.1-0.1-0.2-0.1-0.2c0,0,0,0,0,0c0-0.1-0.1-0.2-0.1-0.3c0,0,0,0,0,0
			c0-0.1-0.1-0.2-0.1-0.2c0,0,0,0,0,0c-0.1-0.2-0.2-0.4-0.3-0.6l0,0c-0.6-1.4-1.3-2.7-1.1-3.8c-0.3,0.6-0.5,0.7-0.8,1.3
			c-0.2,1.1-0.4,3.1-2.2,3.3c0,0,0,0-0.1,0c2.9-1.9,1.6-7.9-0.7-9.8c-1-0.9-2.4-0.5-3.3-1.2c1.4,1.1,2.2,3.5,0.6,4.7
			c-1.9-1.3-3-4.4-6-3.8c-2.1,0.4-5.7,3.8-7.1,2.9c0,0,0,0-0.1,0c-0.2-0.1-0.3-0.3-0.4-0.6l0,0c-0.1-0.3-0.1-0.6-0.1-0.6
			s-0.3,0.5-0.1,1c0,0,0,0,0,0c0,0,0,0,0,0c0.1,0.2,0.2,0.3,0.4,0.5l0,0c0.9,0.9,2,0.4,3.7,0.4c9.5,0.1,9.6,14.4,2.5,17.8
			c2.2-2.7,2.6-6,0.4-7.3c-0.1,0-0.2-0.1-0.3-0.1l0,0.1c1.1,0.4,2,2.9-0.2,4.4c-2,0.7-3.2,0-4.1-0.3c-0.3,0.5-0.7,1-1.4,1.5
			c-3.1,1.6-5.4,0.6-6.7,1l0.1-0.1c1-1,3.9-0.8,5.8-1.9c1.5-1.1,1.9-2.6,1.8-3.9c0.2,3.1-7.9,2.3-9.3,2.4c-1.7,0.2-4,1.3-5.6,2.8
			l0,0c-0.5,0.5-1.8,1.7-3.3,2.9c3.3-1.2,7-1.9,10.9-2c0.2,0,0.5,0,0.7,0c2.8,0,5.6,0.3,8.4,0.9c0.7,0.2,1.5,0.4,2.2,0.6
			c0.7,0.2,1.5,0.5,2.2,0.7c0.7,0.3,1.4,0.6,2.2,0.9c0.7,0.4,1.3,0.7,2,1.1c2.7,1.6,5.1,3.7,7.1,6.2c2,2.4,3.4,5.1,4.4,7.9
			c0.2,0.7,0.4,1.3,0.6,2c1.5,1.6,2.2,3.2,1,4.5c1.2-1.3,2.1-3.4,1.3-5.9c-1.1-2.9-4.6-5.1-4.8-7.1l-0.1-0.2c1.6,2.1,5,2.5,6.7,6.6
			c0.4,1,0.3,2.1,0.2,3c1.3,0.4,3.9,0.9,4.9,3.1c1,2.2-0.8,4.5-2.4,5.2c-1.3,0-2.6,0.3-3.8,0.9c-0.4-1.5-1-2.9-2-4.1
			c-0.1-0.1-0.2-0.2-0.3-0.3c0,0.3,0,0.5,0,0.8c0,0.7-0.1,1.4-0.2,2c-0.1,0.7-0.2,1.3-0.3,1.9c-0.3,1.3-0.6,2.4-1,3.5
			c-0.4,1.3-0.9,2.5-1.5,3.6c0.6,0.9,1.3,2.1,1,3.5c-0.6,2.4-3.4,2.6-4.4,1.8c0,0,0,0,0,0c3,2.7,9.2-1.9,9.3-8.7
			c-0.1-1.1-0.3-2.3-0.5-3.4c0.9-0.1,1.9-0.1,2.4,0c2.6,0.5,2.4,2.9,2.3,5c-0.1,1.8,0.8,1.2,2.1,2.1c0.5,0.6,0.5,1.3,0.4,1.8
			c0.6-0.7,1.2-1.8,1.4-3.2c0.2-1.9-0.4-3.5-1.1-4.2l0.1,0.1c4,4.1,0.3,8.5,0.2,8.6c-0.6,0.9-1.1,1.5-1.8,2.6c-1.1,1.7,0.6,5,2,7
			c0.3,0.6,0.8,1.1,1.2,1.4c-0.4-1.8,3.1-2.1,3.4-4.4c0.1-0.7,0.2-2.1,0.8-2.6c0.8-0.7,1.5,0.2,1.6,1c0.9,4.2-2.6,10.4-7.7,9.3
			c-0.9-0.2-4.5-2-3.6-3.3c-0.1,0.1-0.8,0.1-1,0.2c-0.4,0.2-0.6,0.5-0.8,0.9c-0.3,0.7,0.2,1.4,0.5,2c0-0.1-1.3-0.4-1.5-0.5
			c-1-0.7-1.7-1.9-1.6-3.1c0.1-0.9,1.1-3.1,2.3-2.4c-1.6-1.1-3.7-0.1-4.4,1.6c-0.7,1.8-0.1,4.2,1.2,5.6c-0.3-0.3-1.1-0.6-1.6-0.3
			c-1.7,1.3,1.3,3.6,2.3,4c2.9,1.4,6.4,1.3,9.5,0.8c5.4-1,10.7-6.3,11.1-13.2C188.3,85.6,184.8,79.1,180.2,76.3z M179.8,96
			c0.2-0.3,0.4-0.6,0.6-0.9c-0.3,0.2-0.5,0.4-0.7,0.5c-0.2,0.1-0.5,0.3-0.6,0.5c0,0.3-0.1,0.6-0.2,0.8
			C179.2,96.7,179.6,96.3,179.8,96z M170.2,67.3L170.2,67.3c-0.3-0.1-0.5-0.2-0.8-0.2c-0.1,0-0.2-0.1-0.3-0.1
			c-0.3,0.9-0.7,1.7-1.3,2.5c0.6,0.8,1,1.6,1.4,2.5c0,0,0,0,0,0c0.1,0,0.2,0,0.4,0c0,0,0,0,0,0c0.5,0,1.3-0.1,1.8-0.3l0,0
			c0.1,0,0.1-0.1,0.2-0.1c0.2-0.1,0.4-0.3,0.6-0.6c0.2-0.3,0.3-0.5,0.4-0.8c0.1-1-0.8-2.2-1.9-2.7C170.5,67.5,170.4,67.4,170.2,67.3
			C170.3,67.4,170.2,67.4,170.2,67.3z M137.5,74.6v71.2c0,8.4-6.9,15.3-15.3,15.3h-15.6c-2.7,0-5.3,1.2-7,3.3l-1.4,1.7l-1.4-1.7
			c-1.8-2.1-4.3-3.3-7-3.3H74.1c-8.4,0-15.3-6.9-15.3-15.3V74.6h17.6c0.4-3.1,1.8-5.2,3.7-5.6c1.6-0.8,3.9-1.5,6-2.1
			c1.2-0.4,2.4-0.8,3.4-1.1c0.4-0.5,0.7-1.6,0.9-2.7c-3.7-2.2-6.1-6-6.1-10.2c0-2,0.6-4,1.6-5.8c0.3-0.5,0.8-0.8,1.4-0.9l1.9-0.1
			c2.1-2.8,5.4-4.6,9.1-4.6c3.7,0,7.1,1.8,9.1,4.6l1.9,0.1c0.6,0,1.1,0.4,1.4,0.9c1.1,1.8,1.6,3.8,1.6,5.8c0,4.1-2.3,7.8-5.9,10.1
			c0.2,1.1,0.6,2.3,0.9,2.9c1,0.4,2.2,0.7,3.4,1.1c2.2,0.7,4.4,1.4,6,2.1c1.8,0.4,3.2,2.5,3.7,5.6C120.6,74.6,137.5,74.6,137.5,74.6
			z M92,45.9l6.3-0.5c0.1,0,0.2,0,0.3,0l6.3,0.5c-1.7-1.5-3.9-2.5-6.4-2.5S93.7,44.3,92,45.9z M98.4,63.8c7,0,12.6-4.9,12.6-10.9
			c0-1.7-0.5-3.5-1.4-5c-0.1-0.1-0.2-0.2-0.3-0.2l-10.9-0.8c0,0,0,0-0.1,0l-10.9,0.8c-0.1,0-0.2,0.1-0.3,0.2c-0.9,1.5-1.4,3.3-1.4,5
			C85.8,58.9,91.4,63.8,98.4,63.8z M105.4,63.6c-2.1,1-4.4,1.6-7,1.6c-2.4,0-4.7-0.5-6.7-1.5c-0.2,1.1-0.6,2.2-1.1,2.9
			c2.6,2.7,5.3,4,7.9,4c2.7,0,5.3-1.4,7.9-4C106,65.9,105.6,64.7,105.4,63.6z M82.8,69.5c1.1,0.6,1.9,1.9,2.8,3.2
			c0.1,0.1,0.1,0.2,0.2,0.4c4.9,8.9,9.6,10.8,12.7,10.8c0,0,0,0,0,0c3.1,0,7.8-1.9,12.7-10.8c0.1-0.2,0.2-0.3,0.2-0.4
			c0.9-1.3,1.7-2.6,2.8-3.2c-1.2-0.4-2.5-0.8-3.7-1.2c-1.2-0.4-2.4-0.8-3.5-1.1c-2.6,2.9-5.4,4.4-8.2,4.5v2.7h-0.7v-2.7
			c-2.8-0.1-5.5-1.6-8.2-4.5c-1,0.4-2.2,0.7-3.5,1.1C85.3,68.6,84,69,82.8,69.5z M132.9,118.2V79.2h-24.2c-1,1.2-2,2.2-3,2.9
			c0.1,0.3,0,0.7-0.2,1c-0.3,0.6-0.8,0.9-1.4,1l-0.1,0l0-0.1c-0.1-0.2-0.2-0.4-0.2-0.6c-0.1,0.1-0.2,0.1-0.3,0.2
			c0.4,0.3,0.6,0.9,0.5,1.5c-0.1,0.6-0.5,1.1-1,1.3l-0.1,0l-0.1,0c-0.5-0.3-0.7-0.9-0.6-1.5c0-0.3,0.2-0.6,0.4-0.9
			c-0.1,0-0.2,0.1-0.2,0.1c-0.1,0.3-0.3,0.6-0.6,0.8l-0.1,0l-0.1,0c-0.2-0.1-0.4-0.2-0.5-0.4c0,0,0,0-0.1,0c0.2,0.6,0.2,1.2-0.2,1.6
			l-0.1,0.1l-0.1,0c-0.6-0.1-1.1-0.5-1.3-1.1c0-0.1-0.1-0.2-0.1-0.2c-0.1,0-0.1,0-0.2,0c0,0.4-0.1,0.8-0.4,1.1l-0.1,0.1l-0.1,0
			c-0.5-0.1-1-0.6-1.2-1.1c-0.1,0-0.1,0-0.2,0c0,0.1,0,0.3,0,0.4c-0.1,0.6-0.6,1.1-1.1,1.3l-0.1,0l-0.1-0.1c-0.4-0.4-0.6-1-0.5-1.6
			c0,0,0,0,0-0.1c-0.1,0.1-0.3,0.3-0.4,0.3l-0.1,0l-0.1,0c-0.4-0.3-0.7-0.7-0.7-1.3c-0.5-0.2-1-0.5-1.5-0.8c0.1,0.5,0.1,0.9-0.2,1.3
			l0,0.1l-0.1,0c-0.6-0.1-1.1-0.5-1.4-1c-0.3-0.5-0.3-1.1,0-1.6c-0.9-0.7-1.8-1.6-2.7-2.7H63.4v38.9h29.5v0c3.4,0,3.7-1.7,3.7-2.4
			l0-6.6h0c0-4.5-2.6-7.1-7.8-7.8c0,0,0,0,0,0c-0.2,0-0.3,0-0.5-0.1c-0.2,0-0.4,0-0.5-0.1c-0.1,0-0.2,0-0.3,0c-0.2,0-0.5,0-0.7,0
			c-0.1,0-0.2,0-0.2,0c-0.1,0-0.3,0-0.4,0c0,0,0,0,0,0c-0.3,0-0.5-0.2-0.5-0.5v0c0-0.2,0.2-0.4,0.5-0.4c0.2,0,0.4,0,0.5,0
			c0.2,0,0.3,0,0.5,0c0.1,0,0.3,0,0.4,0c0.2,0,0.5,0,0.7,0.1c0,0,0,0,0,0c5.2,0.5,7.8,2.5,9.1,4.6l0.3-10.8l0-0.4
			c0-0.3,0.2-0.5,0.5-0.5c0.3,0,0.5,0.2,0.5,0.5l0,0.6l0.3,10.7c1.3-2,3.9-4.1,9.1-4.6c0,0,0,0,0,0c0.2,0,0.5,0,0.7-0.1
			c0.1,0,0.3,0,0.4,0c0.2,0,0.3,0,0.5,0c0.2,0,0.4,0,0.5,0c0.2,0,0.4,0.2,0.5,0.4v0c0,0.2-0.2,0.4-0.5,0.4c0,0,0,0,0,0
			c-1.3,0-3.5,0.2-5.6,0.9c-3.3,1.2-4.9,3.6-4.9,7.1l0,6.6c0,0.7,0.4,2.4,3.7,2.4v0L132.9,118.2L132.9,118.2z M63.4,119.1V145
			c0,5.9,4.8,10.7,10.7,10.7h15.6c3.1,0,6,1,8.4,2.9c2.4-1.9,5.4-2.9,8.4-2.9h15.6c5.9,0,10.7-4.8,10.7-10.7v-25.9L63.4,119.1
			L63.4,119.1z M135.9,77.1h-18.4h-7.1c-0.3,0.5-0.7,0.9-1,1.4h24.3V145c0,6.3-5.1,11.4-11.4,11.4h-15.6c-3,0-5.9,1-8.2,2.9
			l-0.2,0.2l-0.2-0.2c-2.3-1.9-5.2-2.9-8.2-2.9H74.1c-6.3,0-11.4-5.1-11.4-11.4V78.5h25c-0.3-0.4-0.7-0.9-1-1.4H60.5V145
			c0,7.5,6.1,13.6,13.6,13.6h15.6c3.2,0,6.2,1.4,8.3,3.9l0.2,0.2l0.2-0.2c2.1-2.5,5.1-3.9,8.3-3.9h15.6c7.5,0,13.6-6.1,13.6-13.6
			L135.9,77.1L135.9,77.1z"/>
		<g>
			<g>
				<path d="M270.7,61.5c0,4.1-1.4,7.5-4.3,10.1c-2.8,2.6-6.4,3.9-10.5,3.9h-19.3v-2l4.1-0.6l-0.1-40.1h14.9
					c8.1,0,12.2,2.7,12.2,8.2c0,2.6-1.1,4.9-3.3,7c-2.2,2.1-4.5,3.2-7,3.5C266.3,52.2,270.7,55.6,270.7,61.5z M260.7,42.7
					c0-2.9-0.8-4.9-2.3-6.1c-1.4-1.1-3.6-1.5-6.6-1.5c-0.9,0-2.3,0.2-4.3,0.4l0.1,14.6h6.5c2.2-0.3,3.9-0.9,4.9-1.9
					C260.2,47.2,260.7,45.3,260.7,42.7z M263.4,63.1c0.1-3.1-0.8-5.6-2.6-7.5c-1.9-2-4.7-3-8.4-3h-4.9v19.7c1,0.4,3.1,0.6,6.3,0.6
					c3.8,0,6.4-1,7.8-2.9C262.8,68.7,263.3,66.4,263.4,63.1z"/>
				<path d="M302.7,46.8c-0.5,0.8-2.7,5.6-6.7,14.5c-4.7,10.3-8.1,17.8-10.4,22.5c-1.4,2.9-4.1,4.4-7.8,4.4c-1.6,0-2.8-0.1-3.7-0.4
					v-4.1c1.9,0.8,3.7,1.2,5.3,1.1c2.4-0.1,4.5-3.1,6.3-9.2l-11.7-28.8h6.6l8.7,21.7c1.1-2.7,2.6-6.3,4.6-10.8
					c1.7-3.7,2.7-6.2,3.2-7.6c-0.3-0.8-0.8-1.9-1.5-3.4L302.7,46.8L302.7,46.8z"/>
				<path d="M334.7,44.9v3.7c-3.7-0.3-6.4-0.5-7.9-0.6c2.6,1.9,3.9,4.4,3.9,7.5c0,2.9-1.4,5.5-4.3,7.8c-2.9,2.3-6,3.4-9.3,3.4
					c-0.2,0-1.3-0.1-3.3-0.3v4.7h12.8c1.9,0,3.5,0.5,4.7,1.4c1.2,0.9,1.8,2.3,1.8,4.2c0,0.4,0,0.9,0,1.5c-0.6,3.3-3.2,5.9-7.7,7.7
					c-3.5,1.4-7.4,2.1-11.7,2.1c-5.3,0-7.9-2-7.9-6.1c0-1.6,0.6-3.1,1.7-4.7c0.9-1.2,1.8-2.1,2.6-2.5l2.5-8.5
					c-1.8,0-3.3-0.9-4.7-2.6s-2-3.9-2.1-6.6c0-2.9,1.3-5.5,3.9-7.8c2.6-2.3,5.5-3.4,8.8-3.4c3.1,0,5.3,0.3,6.5,0.9
					C326,46.6,329.3,46,334.7,44.9z M327.4,79.8c0-2.6-1.8-3.9-5.3-4H310c-0.3,4.6-0.2,7,0.3,7.4c1.9,1.2,4.6,1.8,8.1,1.8
					c2,0,3.9-0.2,5.9-0.6c1.7-0.3,2.6-0.6,2.7-0.8C327.3,83,327.4,81.7,327.4,79.8z M324.6,55.9c0-2.6-0.4-4.4-1.1-5.4
					c-0.8-1.2-2.5-1.8-5-1.8c-3.3,0-5.3,0.2-5.9,0.6s-0.9,2.5-0.9,6.3c0,5.4,1.9,8.1,5.8,8.1c3.6,0,5.7-0.3,6.2-0.8
					C324.3,62.4,324.6,60.1,324.6,55.9z"/>
				<path d="M367.1,44.9v3.7c-3.7-0.3-6.4-0.5-7.9-0.6c2.6,1.9,3.9,4.4,3.9,7.5c0,2.9-1.4,5.5-4.3,7.8c-2.9,2.3-6,3.4-9.3,3.4
					c-0.2,0-1.3-0.1-3.3-0.3v4.7H359c1.9,0,3.5,0.5,4.7,1.4c1.2,0.9,1.8,2.3,1.8,4.2c0,0.4,0,0.9,0,1.5c-0.6,3.3-3.2,5.9-7.7,7.7
					c-3.5,1.4-7.4,2.1-11.7,2.1c-5.3,0-7.9-2-7.9-6.1c0-1.6,0.6-3.1,1.7-4.7c0.9-1.2,1.7-2.1,2.6-2.5l2.5-8.5
					c-1.8,0-3.3-0.9-4.7-2.6c-1.3-1.7-2-3.9-2.1-6.6c0-2.9,1.3-5.5,3.9-7.8c2.6-2.3,5.5-3.4,8.8-3.4c3.1,0,5.3,0.3,6.5,0.9
					C358.4,46.6,361.7,46,367.1,44.9z M359.8,79.8c0-2.6-1.8-3.9-5.3-4h-12.2c-0.3,4.6-0.2,7,0.3,7.4c1.9,1.2,4.6,1.8,8.1,1.8
					c2,0,3.9-0.2,5.9-0.6c1.7-0.3,2.6-0.6,2.7-0.8C359.7,83,359.8,81.7,359.8,79.8z M357,55.9c0-2.6-0.4-4.4-1.1-5.4
					c-0.8-1.2-2.5-1.8-5-1.8c-3.3,0-5.3,0.2-5.9,0.6c-0.6,0.4-0.9,2.5-0.9,6.3c0,5.4,1.9,8.1,5.8,8.1c3.6,0,5.7-0.3,6.2-0.8
					C356.7,62.4,357,60.1,357,55.9z"/>
				<path d="M396.6,71.4c-1.1,1-3,2.1-5.8,3.2c-3.1,1.3-5.9,1.9-8.4,1.9c-3.6,0-6.5-1.1-8.6-3.4c-2.2-2.3-3.2-5.4-3.2-9.4
					c0-5,1.4-9.1,4.1-12.3c3-3.6,7.1-5.4,12.5-5.4c3.8,0,6.5,1.7,8,5.2c1.1,2.4,1.5,5.3,1.3,8.7l-19.7-0.1c-0.1,4.2,0.3,7.3,1.3,9.4
					c1.2,2.3,3.2,3.5,6.2,3.5c5.1,0,9-0.7,11.7-2.2C396.3,71.1,396.5,71.4,396.6,71.4z M390,54.5c-0.3-3.6-2.1-5.4-5.5-5.4
					c-3.4,0-5.5,0.3-6.3,0.9c-0.5,0.4-1,3.2-1.5,8.3c3.1-0.2,7.5-0.3,13.1-0.5C390.1,56.4,390.1,55.3,390,54.5z"/>
				<path d="M422.2,65.6c0,3-1.6,5.5-4.7,7.7c-3.1,2.2-6.4,3.3-9.8,3.4c-2.9,0-5.4-0.3-7.5-0.8v-4.4c1.1,0.5,2.9,0.9,5.3,1.4
					c2.4,0.5,4.4,0.7,5.9,0.6c1.9-0.1,3.2-0.3,3.9-0.8c1.1-0.6,1.7-1.7,1.7-3.4c0-2.3-0.5-3.9-1.5-4.8c-0.9-0.8-2.8-1.4-5.9-2
					c-3-0.6-5.1-1.4-6.3-2.4c-1.3-1.1-1.9-2.7-1.9-5.1c0-2.6,1.6-4.7,4.8-6.5c2.8-1.6,5.8-2.3,9-2.3c1.6,0,3.2,0.1,5.1,0.4v4
					c-2.5-0.9-5.5-1.4-9-1.4c-0.8,0-1.5,0-2.2,0.1c-1.2,0.1-2,0.3-2.2,0.7c-0.3,0.4-0.4,1.2-0.4,2.4c0,1.9,0.5,3.3,1.6,3.9
					c0.7,0.5,2.4,0.9,5.1,1.5c3.3,0.6,5.7,1.5,7.1,2.7C421.6,61.4,422.3,63.2,422.2,65.6z"/>
				<path d="M453.1,71.4c-1.1,1-3,2.1-5.8,3.2c-3.1,1.3-5.9,1.9-8.4,1.9c-3.6,0-6.5-1.1-8.6-3.4c-2.2-2.3-3.2-5.4-3.2-9.4
					c0-5,1.4-9.1,4-12.3c3-3.6,7.1-5.4,12.5-5.4c3.8,0,6.5,1.7,8,5.2c1.1,2.4,1.5,5.3,1.3,8.7l-19.7-0.1c-0.1,4.2,0.3,7.3,1.3,9.4
					c1.2,2.3,3.2,3.5,6.2,3.5c5.1,0,9-0.7,11.7-2.2C452.9,71.1,453,71.4,453.1,71.4z M446.6,54.5c-0.3-3.6-2.1-5.4-5.5-5.4
					c-3.4,0-5.5,0.3-6.3,0.9c-0.5,0.4-1,3.2-1.5,8.3c3.1-0.2,7.5-0.3,13.1-0.5C446.7,56.4,446.7,55.3,446.6,54.5z"/>
				<path d="M470.8,73.7v1.8h-13.9v-1.8c0.8-0.1,2.2-0.4,4-0.7c0,1.9,0-12.8,0-43.9h5.8V73L470.8,73.7z"/>
				<path d="M496.3,65.6c0,3-1.6,5.5-4.7,7.7c-3.1,2.2-6.4,3.3-9.8,3.4c-2.9,0-5.4-0.3-7.5-0.8v-4.4c1.1,0.5,2.9,0.9,5.3,1.4
					c2.4,0.5,4.4,0.7,5.9,0.6c1.9-0.1,3.2-0.3,3.9-0.8c1.1-0.6,1.7-1.7,1.7-3.4c0-2.3-0.5-3.9-1.5-4.8c-0.9-0.8-2.8-1.4-5.9-2
					c-3-0.6-5.1-1.4-6.3-2.4c-1.3-1.1-1.9-2.7-1.9-5.1c0-2.6,1.6-4.7,4.8-6.5c2.8-1.6,5.8-2.3,9-2.3c1.6,0,3.2,0.1,5.1,0.4v4
					c-2.5-0.9-5.5-1.4-9-1.4c-0.8,0-1.5,0-2.2,0.1c-1.2,0.1-2,0.3-2.2,0.7c-0.3,0.4-0.4,1.2-0.4,2.4c0,1.9,0.5,3.3,1.6,3.9
					c0.7,0.5,2.4,0.9,5.1,1.5c3.3,0.6,5.7,1.5,7.1,2.7C495.7,61.4,496.3,63.2,496.3,65.6z"/>
				<path d="M531.3,75.6l-7.5,0.5l-11.3-15.8c-0.1,0.1-1,0.8-2.7,2.1l0.1,10.7l4.3,0.7v1.8h-13.7v-1.8c0.7-0.2,1.9-0.4,3.6-0.7
					c0-0.1,0-14.7,0-43.9h5.8v31.1c4.9-4.6,8.6-8.2,11.1-10.7c-0.3-2.3-0.4-3.2-0.4-2.8l8.9,0.1c-2.4,1.7-6.6,4.9-12.6,9.7
					l12.5,16.6l2,0.4L531.3,75.6L531.3,75.6z"/>
				<path d="M560.8,73.7c0,0.9,0,1.6,0,1.9l-9,0.8c-0.5-0.6-0.7-2.1-0.7-4.5c-1,1-2.4,2-4.4,2.9c-2.2,1-3.9,1.6-5.4,1.6
					c-4.8,0-7.2-2.5-7.2-7.5c0-2.3,0.8-4.2,2.4-5.7c1.3-1.2,3.2-2.3,5.9-3.2c3.1-1.2,6-1.9,8.7-2.1v-4.2c0-1.4-0.4-2.4-1.2-3
					c-0.6-0.5-1.6-0.8-3-0.9c-2.2-0.3-4.1-0.3-5.8,0l-2.1,4.7h-2.1l-0.7-5.3c5.9-2.1,10.8-3.2,14.7-3.2c2,0,3.6,0.7,4.6,2
					c0.9,1.1,1.4,2.6,1.4,4.4v17c0,2.2,0.2,3.6,0.7,4.2H560.8z M551,61c-5.1-0.2-8.1-0.1-8.8,0.3c-0.7,0.4-1.2,0.8-1.4,1.3
					c-0.5,0.9-0.7,2.4-0.7,4.6c0,2,0.4,3.4,1,4.1c0.6,0.7,1.7,1,3.4,1c1.7,0,3.9-0.3,6.5-0.9V61z"/>
				<path d="M594.3,58.8c0,4.8-1.5,8.8-4.4,12.2c-3.1,3.5-7.1,5.3-12,5.3c-4.3,0-7.9-0.4-10.6-1.3V29.2h5.8v20.3
					c1.1-0.8,2.7-1.5,4.9-2.3c2.5-0.9,4.7-1.3,6.5-1.3C591.1,45.8,594.3,50.1,594.3,58.8z M588.3,62.3c0-4.4-0.5-7.6-1.6-9.6
					c-1.2-2.1-3.3-3.2-6.3-3.2c-3.3,0-5.7,0.3-7.2,0.9v21.9c1.6,0.5,4.2,0.8,7.5,0.8c3.1,0,4.9-0.2,5.5-0.7c0.5-0.3,0.9-1.6,1.4-3.7
					C588,66.5,588.3,64.4,588.3,62.3z"/>
			</g>
			<g>
				<path d="M280.3,136.9v2h-14.4v-2l4.1-0.6l0.1-34.6L258.7,127h-2.8l-12.2-25c0,19.3,0.5,30.8,1.6,34.4l3,0.4v2h-11.8v-2l2.9-0.4
					c0.6-2,1-6,1.1-12.2c0-2.1,0.1-11.5,0.1-28.1h7.8l10.8,23.1l9.9-23.1h7.5v40.1L280.3,136.9z"/>
				<path d="M315,124.2c0,4.1-1.7,7.8-5.1,10.9c-3.4,3.2-7.2,4.7-11.4,4.7c-4.8,0-8.2-1.2-10.4-3.6c-2.1-2.3-3.1-5.9-3.1-10.8
					c0-4.1,1.6-7.9,5-11.2c3.4-3.3,7.1-5,11.1-5c4.7,0,8.3,1.4,10.6,4.2C314,116,315.1,119.6,315,124.2z M309.1,124.4
					c0-4.2-0.6-7.2-1.9-8.9c-1.4-2-3.9-3-7.5-3c-1.2,0-2.6,0.1-4.1,0.4c-1.6,0.3-2.5,0.5-2.8,0.8c-0.3,0.3-0.7,1.5-1.2,3.9
					c-0.5,2.5-0.8,4.8-0.8,6.8c0,8.2,3.1,12.3,9.4,12.3c4,0,6.5-0.3,7.2-0.9c0.3-0.3,0.7-1.6,1.1-4.2
					C308.9,128.9,309.1,126.5,309.1,124.4z"/>
				<path d="M348.6,108.1v3.7c-3.7-0.3-6.4-0.5-7.9-0.6c2.6,1.9,3.9,4.4,3.9,7.5c0,2.9-1.4,5.5-4.3,7.8c-2.9,2.3-6,3.4-9.3,3.4
					c-0.2,0-1.3-0.1-3.3-0.3v4.7h12.8c1.9,0,3.5,0.5,4.7,1.4c1.2,0.9,1.8,2.3,1.8,4.2c0,0.4,0,0.9,0,1.5c-0.6,3.3-3.2,5.9-7.7,7.7
					c-3.5,1.4-7.4,2.1-11.7,2.1c-5.3,0-7.9-2-7.9-6.1c0-1.6,0.6-3.1,1.7-4.7c0.9-1.2,1.8-2.1,2.6-2.5l2.5-8.5
					c-1.8,0-3.3-0.9-4.7-2.6c-1.3-1.7-2-3.9-2.1-6.6c0-2.9,1.3-5.5,3.9-7.8c2.6-2.3,5.5-3.4,8.8-3.4c3.1,0,5.3,0.3,6.5,0.9
					C339.9,109.9,343.1,109.2,348.6,108.1z M341.3,143.1c0-2.6-1.8-3.9-5.3-4h-12.2c-0.3,4.6-0.2,7,0.3,7.4c1.9,1.2,4.6,1.8,8.1,1.8
					c2,0,3.9-0.2,5.9-0.6c1.7-0.3,2.6-0.6,2.7-0.8C341.2,146.3,341.3,145,341.3,143.1z M338.5,119.2c0-2.6-0.4-4.4-1.1-5.4
					c-0.8-1.2-2.5-1.8-5-1.8c-3.3,0-5.3,0.2-5.9,0.6c-0.6,0.4-0.9,2.5-0.9,6.3c0,5.4,1.9,8.1,5.8,8.1c3.6,0,5.7-0.3,6.2-0.8
					S338.5,123.4,338.5,119.2z"/>
				<path d="M378,134.7c-1.1,1-3,2.1-5.8,3.2c-3.1,1.3-5.9,1.9-8.4,1.9c-3.6,0-6.5-1.1-8.6-3.4c-2.2-2.3-3.2-5.4-3.2-9.4
					c0-5,1.4-9.1,4.1-12.3c3-3.6,7.1-5.4,12.5-5.4c3.8,0,6.5,1.7,8,5.2c1.1,2.4,1.5,5.3,1.3,8.7l-19.7-0.1c-0.1,4.2,0.3,7.3,1.3,9.4
					c1.2,2.3,3.2,3.5,6.2,3.5c5.1,0,9-0.7,11.7-2.2C377.7,134.4,377.9,134.7,378,134.7z M371.5,117.8c-0.3-3.6-2.1-5.4-5.5-5.4
					c-3.4,0-5.5,0.3-6.3,0.9c-0.5,0.4-1,3.2-1.5,8.3c3.1-0.2,7.5-0.3,13.1-0.5C371.5,119.6,371.6,118.6,371.5,117.8z"/>
				<path d="M413.3,138.9l-13.7-0.1v-1.9l4.2-0.6v-18.8c0-2.3-1.4-3.5-4.1-3.5c-3.4,0-6.2,0.3-8.6,1v21.3l4.4,0.6v1.9h-13.7v-1.8
					l3.5-0.7v-26.3h5.8v4.2c5-3.3,9.2-4.9,12.7-4.9c3.9,0,5.9,2.2,5.9,6.5v20.5l3.7,0.6L413.3,138.9L413.3,138.9z"/>
				<path d="M438.6,128.8c0,3-1.6,5.5-4.7,7.7c-3.1,2.2-6.4,3.3-9.8,3.4c-2.9,0-5.4-0.3-7.5-0.8v-4.4c1.1,0.5,2.9,0.9,5.3,1.4
					c2.4,0.5,4.4,0.7,5.9,0.6c1.9-0.1,3.2-0.3,3.9-0.8c1.1-0.6,1.7-1.7,1.7-3.4c0-2.3-0.5-3.9-1.5-4.8c-0.9-0.8-2.8-1.4-5.9-2
					c-3-0.6-5.1-1.4-6.3-2.4c-1.3-1.1-1.9-2.7-1.9-5.1c0-2.6,1.6-4.7,4.8-6.5c2.8-1.6,5.8-2.3,9-2.3c1.6,0,3.2,0.1,5.1,0.4v4
					c-2.5-0.9-5.5-1.4-9-1.4c-0.8,0-1.5,0-2.2,0.1c-1.2,0.1-2,0.3-2.2,0.7s-0.4,1.1-0.4,2.4c0,1.9,0.5,3.2,1.6,3.9
					c0.7,0.5,2.4,0.9,5.1,1.5c3.3,0.6,5.7,1.5,7.1,2.7C438,124.7,438.7,126.5,438.6,128.8z"/>
				<path d="M490.7,136.9c0,0.9,0,1.6,0,1.9l-9.1,0.8c-0.5-0.7-0.7-2.1-0.8-4.4c-1,1.1-2.4,2-4,2.8c-2,1.1-3.9,1.6-5.5,1.5
					c-3.5,0-6.3-1.1-8.3-3.2c-2-2.1-2.9-5.2-2.9-9.1c0-4.8,1.5-8.9,4.4-12.4c3.1-3.7,7-5.6,11.7-5.6c2.4,0,4,0.1,4.7,0.3l-0.1-17.3
					h5.8v40.3c0,2.1,0.3,3.5,0.8,4.2L490.7,136.9L490.7,136.9z M480.9,134.5V113c-3.1-0.4-5.4-0.6-6.8-0.6c-3.3,0-5.4,0.4-6.3,1.1
					c-0.5,0.3-0.9,1.6-1.2,3.7c-0.4,2.1-0.5,4.3-0.5,6.5c0,4.1,0.7,7.1,1.8,9.1c1.3,2.2,3.5,3.2,6.5,3.2
					C476.7,135.7,478.9,135.3,480.9,134.5z"/>
				<path d="M520.7,134.7c-1.1,1-3,2.1-5.8,3.2c-3.1,1.3-5.9,1.9-8.4,1.9c-3.6,0-6.5-1.1-8.6-3.4c-2.2-2.3-3.2-5.4-3.2-9.4
					c0-5,1.4-9.1,4-12.3c3-3.6,7.1-5.4,12.5-5.4c3.8,0,6.5,1.7,8,5.2c1.1,2.4,1.5,5.3,1.3,8.7l-19.7-0.1c-0.1,4.2,0.3,7.3,1.3,9.4
					c1.2,2.3,3.3,3.5,6.2,3.5c5.1,0,9-0.7,11.7-2.2C520.4,134.4,520.6,134.7,520.7,134.7z M514.1,117.8c-0.3-3.6-2.1-5.4-5.5-5.4
					c-3.4,0-5.5,0.3-6.3,0.9c-0.5,0.4-1,3.2-1.5,8.3c3.1-0.2,7.5-0.3,13.1-0.5C514.2,119.6,514.2,118.6,514.1,117.8z"/>
				<path d="M569.1,131.8v7h-28.4v-1.9l4.2-0.7V96.2h6.8v39.6c1.8,0.3,3.9,0.5,6.3,0.5c3.3,0,5.8-0.3,7.5-0.9c0.4-0.8,1.1-2,1.9-3.5
					c0.2,0,0.5,0,1,0S569.1,131.8,569.1,131.8z"/>
				<path d="M586.1,137v1.8h-14.3V137c0.9-0.1,2.3-0.3,4.1-0.6v-26.3l5.8,0.1v26.3L586.1,137z M582.6,99.3c0,1.1-0.4,2-1.1,2.7
					c-0.7,0.7-1.6,1.1-2.7,1.1s-2-0.4-2.7-1.1c-0.8-0.7-1.1-1.6-1.1-2.7c0-1.1,0.4-2,1.1-2.7c0.8-0.7,1.7-1.1,2.7-1.1s2,0.4,2.7,1.1
					C582.2,97.3,582.6,98.2,582.6,99.3z"/>
				<path d="M621,138.9l-13.7-0.1v-1.9l4.2-0.6v-18.8c0-2.3-1.4-3.5-4.1-3.5c-3.4,0-6.2,0.3-8.6,1v21.3l4.4,0.6v1.9h-13.7v-1.8
					l3.5-0.7v-26.3h5.8v4.2c5-3.3,9.2-4.9,12.7-4.9c3.9,0,5.9,2.2,5.9,6.5v20.5l3.7,0.6L621,138.9L621,138.9z"/>
				<path d="M655.9,136.9c0,0.9,0,1.6,0,1.9l-9.1,0.8c-0.5-0.7-0.7-2.1-0.8-4.4c-1,1.1-2.4,2-4,2.8c-2,1.1-3.9,1.6-5.5,1.5
					c-3.5,0-6.3-1.1-8.3-3.2c-2-2.1-2.9-5.2-2.9-9.1c0-4.8,1.5-8.9,4.4-12.4c3.1-3.7,7-5.6,11.7-5.6c2.4,0,4,0.1,4.7,0.3L646,92.4
					h5.8v40.3c0,2.1,0.3,3.5,0.8,4.2L655.9,136.9L655.9,136.9z M646,134.5V113c-3.1-0.4-5.4-0.6-6.8-0.6c-3.3,0-5.4,0.4-6.3,1.1
					c-0.5,0.3-0.9,1.6-1.2,3.7c-0.4,2.1-0.5,4.3-0.5,6.5c0,4.1,0.7,7.1,1.8,9.1c1.3,2.2,3.5,3.2,6.5,3.2
					C641.8,135.7,644,135.3,646,134.5z"/>
				<path d="M685.8,134.7c-1.1,1-3,2.1-5.8,3.2c-3.1,1.3-5.9,1.9-8.4,1.9c-3.6,0-6.5-1.1-8.6-3.4c-2.2-2.3-3.2-5.4-3.2-9.4
					c0-5,1.3-9.1,4-12.3c3-3.6,7.1-5.4,12.5-5.4c3.8,0,6.5,1.7,8,5.2c1.1,2.4,1.5,5.3,1.3,8.7l-19.7-0.1c-0.1,4.2,0.3,7.3,1.3,9.4
					c1.2,2.3,3.3,3.5,6.2,3.5c5.1,0,9-0.7,11.7-2.2C685.5,134.4,685.7,134.7,685.8,134.7z M679.3,117.8c-0.3-3.6-2.1-5.4-5.5-5.4
					c-3.4,0-5.5,0.3-6.3,0.9c-0.5,0.4-1,3.2-1.5,8.3c3.1-0.2,7.5-0.3,13.1-0.5C679.3,119.6,679.4,118.6,679.3,117.8z"/>
			</g>
		</g>
	</g>
</g>
<g id="Dimension_Layer">
</g>
</svg>
